<?xml version="1.0" encoding="utf-8"?>
<!-- Generator: Adobe Illustrator 24.0.2, SVG Export Plug-In . SVG Version: 6.00 Build 0)  -->
<svg version="1.1" id="Layer_1" xmlns="http://www.w3.org/2000/svg" xmlns:xlink="http://www.w3.org/1999/xlink" x="0px" y="0px"
	 viewBox="0 0 1024 1024" style="enable-background:new 0 0 1024 1024;" xml:space="preserve">
<style type="text/css">
	.st0{display:none;fill:#B5B5B5;}
	.st1{fill:#FFFFFF;}
	.st2{fill:#E5E5E5;}
	.st3{fill:#007C7C;}
	.st4{fill:#EAB9EA;stroke:#EAB9EA;stroke-linejoin:round;stroke-miterlimit:10;}
	.st5{fill:#EAB9EA;}
	.st6{fill:#0098FF;stroke:#EAB9EA;stroke-linejoin:round;stroke-miterlimit:10;}
	.st7{fill:#777777;}
	.st8{fill:#D69292;}
	.st9{fill:#BC8A8A;}
	.st10{fill:#5B5B5B;}
	.st11{fill:none;}
	.st12{fill:#007C7C;stroke:#000000;stroke-miterlimit:10;}
	.st13{stroke:#000000;stroke-miterlimit:10;}
	.st14{stroke:#000000;stroke-width:0.5;stroke-miterlimit:10;}
	.st15{fill:#B56A37;}
	.st16{fill:#7F7F7F;}
	.st17{fill:#252525;}
	.st18{fill:#0F0F0F;}
	.st19{fill:#2B2B2B;}
	.st20{fill:#7C451F;}
	.st21{fill:#111111;}
	.st22{fill:#7F7F7F;stroke:#000000;stroke-width:0.25;stroke-miterlimit:10;}
	.st23{fill:#774029;}
	.st24{fill:none;stroke:#000000;stroke-linecap:round;stroke-miterlimit:10;}
	.st25{fill:#FFFFFF;stroke:#007C7C;stroke-width:2;stroke-linecap:round;stroke-linejoin:round;stroke-miterlimit:10;}
	.st26{fill:#FFFFFF;stroke:#007C7C;stroke-width:2;stroke-miterlimit:10;}
	.st27{fill:#007C7C;stroke:#007C7C;stroke-width:4;stroke-miterlimit:10;}
	.st28{fill:#FFFFFF;stroke:#CC0000;stroke-width:4;stroke-linecap:round;stroke-linejoin:round;stroke-miterlimit:10;}
	.st29{fill:#CC0000;}
	.st30{fill:#FFFFFF;stroke:#007C7C;stroke-width:4;stroke-linecap:round;stroke-linejoin:round;stroke-miterlimit:10;}
	.st31{fill:none;stroke:#FFFFFF;stroke-width:2;stroke-linecap:round;stroke-linejoin:round;stroke-miterlimit:10;}
</style>
<rect x="-1" class="st0" width="1023" height="1022"/>
<image style="display:none;overflow:visible;opacity:0.97;" width="745" height="744" xlink:href="111CD3BE.jpg"  transform="matrix(1.3745 0 0 1.3745 -6 -76)">
</image>
<g id="RabbitShadding_2_">
	<path class="st1" d="M545,296.4c-5.5,0.5-9.5,0.6-14-1c-7.8-2.7-12.9-8.7-15-13c-0.5-1-1.5-3.1-2-6c-0.1-0.8-0.4-3.1,0-6
		c1-6.2,4.4-7.8,6-13c0.2-0.7,0-0.4,0-11c0-3,0-4.4,0-5c0.2-4.8,1.5-8.5,2-10c2.7-7.6,7.8-12.9,10-15c2.9-3.2,6.3-6.6,10-10
		c8.4-7.6,12-7.4,20.1-15c2.2-2.1,2.2-2.3,6-6c2.2-2.2,6.1-5.9,11-10c6.6-5.6,12.5-9.7,16-12c2.2-1.4,8.4-5.5,17-10
		c9.8-5.1,17.5-8.1,20.1-9c5.3-2,9.7-3.6,16-5c5.4-1.2,9.9-1.7,13-2c3.6-0.4,4.4-0.4,13-1c7-0.5,10.6-0.8,12-1c5-0.7,6.3-1.8,17-5
		c2.8-0.8,4.4-2.3,7-2c1,0.1,2.1,0.2,3,1c3,2.6,0.6,10.8-3,16c-2.4,3.5-5.1,5.4-6,6c-11,7.7-26.3,15.8-31.6,18.5
		c6.4-0.7,11.5-0.9,15-1c3.7-0.1,3.6,0,12,0c4.3,0,8.7,0.1,13,0c3.1-0.1,6.6-0.3,11,1c2.3,0.7,3.6,1.1,4,2c1.9,4.2-12.7,14.5-15,16
		c-7.1,4.9-13.5,7.5-22.1,11c-6.6,2.7-12.2,4.7-16,6c7.7,1,15.4,2,23.1,3c1-1,2-2,3-3c0,0,12.9-12.6,28.1-22.1
		c46-28.7,86.2-24.1,86.2-24.1c44.8,5.2,71.8,37.1,78.2,45.1c1.3-0.8,8.1-5.2,10-14c1.7-7.5-1.2-13.4-2-15c7.6-0.2,18.7,0.9,28.1,8
		c23.1,17.5,17.3,57.7,16,64.2c-13.8,72-253.9,86.7-281.7,88.2c-0.8,5.2-2.9,13.4-9,21.1c-15.6,19.6-42.6,17.3-45.1,17
		c-3.3-9-6.7-18-10-27.1c1.5-0.6,3.6-1.6,6-3c9.4-5.5,27.9-20.8,24.1-38.1c-2.3-10.6-12.3-18.9-22.1-21.1c-3.5-0.8-5.2-0.4-29.1,6
		C570.3,292.2,559.2,295.1,545,296.4z"/>
	<path class="st2" d="M636.3,234.3c-0.8-0.2-1.9,16.7-15,31.1c-11.9,13.1-26.4,16.2-26.1,17c0.4,0.9,17.4-1.4,29.1-14
		C637.3,254.3,637.2,234.5,636.3,234.3z"/>
	<path class="st2" d="M611.2,208.2c-0.1-0.7,24.6-3.4,58.1-16c28.7-10.9,46.8-22.6,47.1-22.1c0.3,0.6-18.9,14.6-46.1,25.1
		C638.7,207.3,611.3,209,611.2,208.2z"/>
	<path class="st2" d="M663.3,158.1c-12.7,1.6-19.1,2.7-19,3c0,0.4,7.1,0,21.1-1c26.3-15.6,39.3-23.7,39.1-24.1
		C704.2,135.6,690.5,143,663.3,158.1z"/>
	<path class="st2" d="M661,336c-0.5-0.2-3.4,10.4-13,20c-12.3,12.4-27.2,14.4-27,15c0.2,0.6,17.2-0.7,29-13
		C659.2,348.5,661.6,336.3,661,336z"/>
	<path class="st2" d="M657,308c-0.5-0.3-5.5,13.5-19,28c-12.8,13.7-25.3,19.5-25,20c0.3,0.5,14.7-5,27-18
		C653,324.2,657.6,308.3,657,308z"/>
	<g>
		<path class="st3" d="M605.2,343.6c5.4-4,10.2-8.5,14.2-13.6c1-1.3,1.9-2.6,2.8-4c0.9-1.4,1.8-2.7,2.7-4.1c1.7-2.7,3.2-5.5,3.9-8.5
			c1.6-5.8-0.4-12-4.3-17c-3.9-5-9.3-8.9-15.2-12.1c6.5,1.6,12.8,4.9,17.6,10c2.4,2.5,4.4,5.6,5.5,9.1c1.2,3.5,1.2,7.4,0.3,10.9
			c-0.9,3.6-2.7,6.7-4.6,9.5c-1,1.4-2,2.8-3,4.1c-0.5,0.7-1,1.3-1.6,2c-0.6,0.6-1.1,1.3-1.7,1.9C617.1,337,611.4,341,605.2,343.6z"
			/>
	</g>
	<g>
		<path class="st3" d="M613.2,358.6c5.3-2.8,10.4-5.7,15.1-9.1c4.7-3.5,8.9-7.4,12.5-11.8c1.8-2.2,3.5-4.6,5.1-7
			c1.7-2.4,3.3-4.9,4.9-7.3c3.2-4.9,6.1-10.1,9-15.3c-1.3,5.8-3.5,11.5-6.3,16.9c-1.3,2.7-2.9,5.3-4.4,7.8c-1.6,2.6-3.3,5.1-5.2,7.5
			c-3.9,4.8-8.6,8.8-13.9,11.9C624.8,355.2,619.1,357.4,613.2,358.6z"/>
	</g>
	<path class="st2" d="M935,196.2c0.7-0.3,7.5,9,10,22.1c1.2,6.5,3.4,17.7-3,25.1c-1,1.2-3.3,3.5-15,7c-9,2.7-17.2,4.2-24.1,5
		c9.4-4.1,17-7.1,22.1-9c7.8-3,10.6-3.9,13-7c4.1-5.2,3.6-12,3-19C939.8,205.7,934.4,196.5,935,196.2z"/>
</g>
<g id="Rabbit_2_">
	<g>
		<path class="st3" d="M671.8,169.6c3.8-0.4,7.7-0.9,11.5-1.3c3.8-0.4,7.7-0.7,11.5-0.9c7.7-0.4,15.5-0.6,23.2-0.4
			c1.9,0,4,0.1,6,0.5c1,0.2,2.1,0.5,3.2,1.1c0.6,0.3,1.1,0.7,1.6,1.3c0.5,0.6,0.8,1.5,0.9,2.3c0.1,1.6-0.5,2.8-1,3.8
			c-0.6,1-1.2,1.8-1.9,2.6c-1.4,1.6-2.8,2.9-4.4,4.2c-3,2.6-6.3,4.8-9.5,6.9c-3.2,2.2-6.7,4.1-10.2,5.9c-3.5,1.7-7.1,3.3-10.6,4.8
			c-3.6,1.5-7.3,2.9-10.9,4.1c-7.3,2.4-14.7,4.8-22,7.1l-11,3.5c-3.7,1.1-7.5,2.2-11.3,2.9c-7.7,1.3-15.6,1.2-23.2-0.2
			c7.7,0.5,15.4,0,22.8-1.8c3.7-0.9,7.3-2.1,10.9-3.5l10.9-4c7.2-2.7,14.5-5.1,21.8-7.7c3.6-1.3,7.1-2.6,10.6-4.1
			c3.5-1.5,7-3.1,10.4-4.8c3.4-1.7,6.7-3.5,9.9-5.5c3.2-2.1,6.3-4.2,9.2-6.6c1.5-1.2,2.8-2.4,4.1-3.7c0.6-0.7,1.1-1.3,1.6-2
			c0.4-0.7,0.7-1.3,0.6-1.7c0-0.2,0-0.3-0.1-0.4c-0.1-0.1-0.3-0.3-0.6-0.5c-0.6-0.3-1.4-0.6-2.2-0.8c-1.7-0.4-3.5-0.5-5.5-0.6
			c-7.7-0.4-15.3-0.7-23-0.8c-1.9,0-3.8,0-5.8,0c-1.9,0-3.8,0.1-5.8,0.1C679.6,169.5,675.7,169.6,671.8,169.6z"/>
	</g>
	<g>
		<path class="st3" d="M560.6,194.7c-10.3,5.5-19.4,12.8-26.5,21.8c-3.6,4.5-7.4,8.9-9.8,13.9c-1.2,2.5-2.2,5-2.5,7.7
			c-0.1,0.7-0.2,1.3-0.2,2c-0.1,0.7-0.1,1.3-0.1,2c0,1.3,0.2,2.7,0.4,4.1c0.2,1.4,0.4,2.9,0.5,4.4c0.1,1.5,0.1,3.2-0.1,4.8
			c-0.2,1.6-0.6,3.1-1.1,4.6c-0.5,1.5-1.2,3-2,4.3c-0.8,1.4-1.9,2.5-2.6,3.6c-0.7,1-1.1,2.1-1.4,3.4c-0.5,2.5-0.2,5.2,0.6,7.8
			c0.8,2.6,2.1,5,3.8,7.3c1.6,2.2,3.6,4.2,5.9,5.9c4.5,3.3,10.3,4.9,16.1,4.9c-5.8,0.9-11.9-0.1-17.2-3.2c-5.2-3.2-9.3-8-11.5-13.8
			c-0.6-1.5-0.9-3-1.1-4.6c-0.2-1.6-0.1-3.2,0.1-4.8c0.3-1.6,0.8-3.3,1.8-4.7c0.9-1.4,1.8-2.4,2.4-3.6c1.3-2.2,2.1-4.9,2.5-7.4
			c0.3-2.6-0.1-5.2-0.5-8.2c-0.2-1.5-0.3-3-0.4-4.6c0-0.8,0-1.6,0.1-2.3c0-0.8,0.2-1.6,0.3-2.3c0.5-3.1,1.6-6.1,3-8.8
			c1.4-2.7,3.2-5.2,5.1-7.5c1.8-2.3,3.8-4.5,5.8-6.7C539.5,205.5,549.6,198.7,560.6,194.7z"/>
	</g>
	<path class="st4" d="M567.1,228.3c-5.6,2.5-7.9,1.6-11,3c-4.5,2-7.8,7.4-8,12c-0.1,1.9,0.4,3.4,0,7c-0.2,2.1-0.7,3.9-1,5
		c0.5-0.9,1.5-2.2,3-3c2.6-1.4,4.5-0.3,7.5-0.8c4.4-0.8,7.1-4.6,7.6-5.2c0.9-1.2,1.5-2.7,3-12c0.5-2.9,0.8-5.4,1-7
		C568.6,227.5,567.9,227.9,567.1,228.3z"/>
	<g>
		<g>
			<path class="st5" d="M557.7,242.1c1.9,0,1.9-3,0-3C555.7,239.1,555.7,242.1,557.7,242.1L557.7,242.1z"/>
		</g>
	</g>
	<g>
		<g>
			<path class="st5" d="M556.8,239.7c-0.5,0.2-0.6,0.7-0.7,1.2c0,0.3,0,0.5,0,0.8c0.1,0.3,0.2,0.5,0.5,0.7c0.4,0.2,0.8,0.3,1.3,0.4
				c0.5,0.1,1,0,1.4-0.3c0.8-0.5,1.2-1.9,0.6-2.7c-0.3-0.4-0.7-0.7-1.2-0.9c-0.5-0.2-1-0.3-1.5-0.1c-0.4,0.2-0.9,0.4-1.2,0.8
				c-0.4,0.4-0.4,1-0.4,1.5c0,0.2,0,0.5,0.1,0.7c0.1,0.3,0.3,0.5,0.6,0.7c0.4,0.3,0.9,0.6,1.4,0.5c0.6-0.1,1-0.4,1.4-0.7
				c0.3-0.3,0.7-0.7,0.8-1.1c0.1-0.6-0.3-1-0.7-1.4c-0.4-0.4-1-0.7-1.5-0.5c-0.5,0.2-0.9,0.7-1.1,1.2c-0.2,0.6-0.3,1.2-0.1,1.8
				c0.4,1,2.1,1.4,2.8,0.5c0.2-0.2,0-0.6-0.2-0.7c-0.3-0.2-0.5,0-0.7,0.2c0,0,0-0.1,0-0.1c0,0-0.1,0.1-0.1,0c0.1,0-0.2,0-0.1,0
				c0.1,0-0.1,0-0.1,0c0,0-0.1,0-0.1,0c0,0-0.1,0-0.1,0c0.1,0-0.1,0-0.1,0c-0.2-0.1-0.4-0.2-0.5-0.4c0-0.1-0.1-0.2-0.1-0.3
				c0-0.2,0-0.3,0.1-0.5c0.1-0.2,0.2-0.6,0.4-0.7c0,0,0-0.1,0.1-0.1c-0.1,0,0,0,0,0c0,0,0.1,0,0.1,0c0,0,0.1,0,0,0c0,0,0.1,0,0,0
				c0,0,0.1,0,0.1,0c0,0,0.1,0.1,0.2,0.1c0.1,0.1,0.2,0.2,0.3,0.3c0.1,0.1,0.1,0.1,0.1,0.2c0,0,0.1,0.2,0.1,0.1c0,0,0,0.1,0,0
				c0,0,0,0,0,0.1c0,0,0,0,0,0c0,0.1,0,0,0,0c0,0,0,0.1-0.1,0.1c-0.1,0.1,0.1-0.1,0,0c0,0,0,0.1-0.1,0.1c-0.1,0.1-0.1,0.1-0.2,0.2
				c-0.2,0.2-0.4,0.4-0.7,0.5c-0.3,0.1-0.5,0.1-0.8-0.1c-0.1-0.1-0.3-0.2-0.3-0.2c-0.1-0.1-0.1-0.1-0.1-0.1c0,0.1,0,0,0-0.1
				c0,0,0-0.1,0-0.1c0-0.2,0-0.3,0-0.5c0-0.2,0-0.3,0-0.4c0-0.1,0.1-0.2,0.2-0.3c0.1-0.1,0.2-0.2,0.3-0.3c0.3-0.2,0.5-0.3,0.8-0.2
				c0.1,0,0.3,0.1,0.5,0.1c-0.1,0,0,0,0,0c0,0,0.1,0,0.1,0c0.1,0,0.2,0.1,0.2,0.1c0,0,0,0,0.1,0.1c0,0,0.1,0.1,0.1,0.1
				c0.1,0.1,0,0,0,0c0.1,0.1,0.1,0.2,0.1,0.4c0,0.2-0.1,0.6-0.2,0.8c0,0,0,0.1-0.1,0.1c0,0-0.1,0.1,0,0.1c0,0,0,0.1-0.1,0.1
				c-0.1,0.1,0,0-0.1,0.1c0,0-0.1,0-0.1,0.1c-0.1,0.1,0,0-0.1,0c0,0-0.1,0-0.1,0c0,0-0.2,0-0.1,0c-0.4,0-0.6,0-0.9-0.1
				c-0.1,0-0.2,0-0.2-0.1c-0.1,0,0,0,0,0c0,0-0.1,0-0.1-0.1c0.1,0,0,0,0,0c0,0,0,0,0,0c0,0,0,0,0,0c0,0,0,0,0,0c0-0.1,0-0.1,0-0.2
				c0-0.2,0-0.4,0-0.6c0,0,0-0.1,0,0c0,0,0-0.1,0-0.1c0-0.1-0.1,0.1,0,0c0,0-0.1,0.1-0.1,0.1c0.3-0.1,0.4-0.4,0.3-0.6
				C557.3,239.8,557,239.6,556.8,239.7L556.8,239.7z"/>
		</g>
	</g>
	<g>
		<path class="st3" d="M645.8,221.8c-1.2,0.9-2.4,1.4-3.7,1.8c-1.2,0.4-2.5,0.6-3.7,0.7c-1.3,0.1-2.5,0-3.8-0.2
			c-1.3-0.2-2.6-0.6-3.9-1.3c1.2-0.9,2.4-1.4,3.7-1.8c1.2-0.4,2.5-0.6,3.7-0.7c1.3-0.1,2.5,0,3.8,0.2
			C643.2,220.7,644.5,221,645.8,221.8z"/>
	</g>
	<g>
		<path class="st3" d="M678.9,205.7l9.6,0.6l9.6,0.7l-0.6,0.2c6.1-6.6,12.8-12.7,19.9-18.2c3.6-2.7,7.3-5.3,11.1-7.7
			c3.8-2.4,7.6-4.7,11.6-6.9c7.9-4.4,16.1-8.2,24.7-11.2c8.6-3,17.4-5.1,26.5-6.1c9-1,18.2-1,27.2,0.2l6.7,1.2
			c0.6,0.1,1.1,0.2,1.7,0.3l1.7,0.4l3.3,0.8c2.2,0.6,4.3,1.3,6.5,2l3.2,1.2c1.1,0.4,2.1,0.8,3.2,1.3c8.3,3.5,16.2,8.1,23.4,13.5
			c7.2,5.4,13.7,11.6,19.5,18.5c-12.6-12.6-27.5-23-44-29.3c-8.2-3.2-16.8-5.2-25.5-6.4c-8.7-1-17.5-1-26.3,0.1
			c-8.7,1.1-17.3,3.1-25.7,5.9c-8.3,2.9-16.4,6.4-24.3,10.6c-2,1-3.9,2.1-5.8,3.2c-1.9,1.1-3.9,2.2-5.8,3.3
			c-3.8,2.2-7.5,4.7-11.2,7.2c-7.3,5.1-14.1,10.8-20.5,17l-0.3,0.2l-0.3,0l-9.5-1.3L678.9,205.7z"/>
	</g>
	<g>
		<path class="st3" d="M632.7,235.8c0,2.7-0.5,5.4-1.3,7.9c-0.8,2.6-1.8,5-3.1,7.3c-1.3,2.3-2.8,4.5-4.6,6.5c-1.8,2-3.7,3.8-6.1,5.3
			c1.1-2.5,2.3-4.8,3.5-7.1c1.2-2.3,2.4-4.5,3.7-6.7l3.7-6.6C629.9,240.3,631.2,238,632.7,235.8z"/>
	</g>
	<g>
		<path class="st3" d="M891.4,204.7c1.3-0.7,2.5-1.6,3.5-2.6c1.1-1,2.1-2,3-3.1c1.8-2.2,3.1-4.8,3.8-7.5c0.8-2.7,1-5.5,0.6-8.3
			c-0.3-2.7-1.1-5.5-2.4-7.8l-1.1-2.1l2.5-0.2c8.5-0.6,17.5,0.9,25.2,5.2c7.7,4.2,13.8,11.1,17.6,18.9c2,3.9,3.3,8,4.3,12.2l0.6,3.2
			c0.2,1.1,0.3,2.1,0.4,3.2l0.2,1.6c0,0.5,0.1,1.1,0.1,1.6l0.1,3.2c0,8.5-1.5,17-4.4,24.8c1.7-8.2,2.4-16.5,1.8-24.7l-0.3-3.1
			c-0.1-0.5-0.1-1-0.2-1.5l-0.3-1.5c-0.2-1-0.3-2-0.6-3l-0.8-3c-1.1-3.9-2.4-7.8-4.4-11.3c-3.7-7.2-9.3-13.2-16.2-17.2
			c-3.5-2-7.3-3.3-11.1-4.2c-3.9-0.9-8-1.2-12-1.2l1.4-2.3c1.3,2.9,2.1,5.9,2.3,9.1c0.1,3.1-0.3,6.2-1.4,9.1
			c-1.1,2.9-2.8,5.5-4.9,7.6C896.7,201.9,894.1,203.6,891.4,204.7z"/>
	</g>
	<g>
		<path class="st3" d="M562.1,191.2c4.8-5.7,10.1-11.2,15.7-16.2c5.6-5,11.6-9.7,17.8-13.9c12.6-8.4,26.3-15,40.6-20.1
			c7.2-2.5,14.5-4.5,22.1-5.7c3.8-0.6,7.6-1,11.4-1.2c3.8-0.1,7.5-0.1,11.1-0.4c3.6-0.3,7.2-1,10.7-2c3.5-1,7-2.2,10.6-3.5
			c1.8-0.6,3.6-1.2,5.6-1.7c1-0.2,2-0.4,3.3-0.4c0.6,0,1.3,0.1,2,0.4c0.7,0.3,1.5,0.8,2,1.4c1,1.3,1.2,2.5,1.3,3.6
			c0.1,1.1,0.2,2.1,0.1,3.2c0,0.5-0.1,1-0.1,1.5c-0.1,0.5-0.1,1.1-0.2,1.6c-0.2,1-0.5,2-0.9,3l-0.2,0.4c0.1-0.1,0.1-0.2,0.2-0.3l0,0
			l0,0.1l-0.1,0.2l-0.2,0.4l-0.4,0.8c-0.3,0.5-0.5,1-0.8,1.5c-0.6,1-1.2,2-1.8,2.9c-0.7,0.9-1.4,1.8-2.2,2.7
			c-0.8,0.9-1.7,1.7-2.6,2.3c-3.6,2.7-7.3,4.8-11.1,6.9c-3.8,2.1-7.5,4.1-11.3,6.1c-3.7,2-7.4,4.2-11.1,6.2l-0.4,0.2l-0.4,0
			c-7.1-0.1-14.1,0.2-21.1,1.1c-7,0.8-14,2.2-20.8,4c-6.8,1.8-13.6,4.1-20.1,6.8c-6.5,2.8-12.9,5.9-19.1,9.5c3-2,6-3.9,9.1-5.6
			c3.1-1.7,6.3-3.4,9.5-4.9c6.5-3.1,13.2-5.7,20-7.8c6.9-2.1,13.9-3.7,21-4.7c7.1-1.1,14.3-1.6,21.5-1.6l-0.9,0.2
			c3.7-2.2,7.4-4.4,11.1-6.5c3.7-2.1,7.5-4.1,11.2-6.2c3.7-2.1,7.3-4.3,10.5-6.7c0.8-0.6,1.5-1.3,2.1-1.9c0.7-0.7,1.3-1.5,1.8-2.3
			c0.6-0.8,1.1-1.7,1.6-2.5c0.2-0.4,0.5-0.9,0.7-1.3l0.8-1.7l-0.2,0.4c0.3-0.8,0.5-1.6,0.7-2.4c0.1-0.4,0.1-0.8,0.2-1.2
			c0-0.4,0.1-0.9,0.1-1.3c0-0.9,0-1.7-0.1-2.5c-0.1-0.7-0.3-1.5-0.5-1.7c-0.1-0.1-0.1-0.1-0.3-0.2c-0.2-0.1-0.4-0.1-0.7-0.1
			c-0.6,0-1.5,0.1-2.3,0.3c-1.7,0.4-3.4,1-5.2,1.6c-3.5,1.2-7.1,2.5-10.8,3.5c-3.7,1-7.5,1.7-11.4,2.1c-3.9,0.3-7.7,0.3-11.4,0.4
			c-1.8,0-3.7,0.2-5.5,0.3c-0.9,0-1.8,0.2-2.7,0.3l-2.7,0.4c-7.3,1.1-14.5,2.9-21.6,5.2c-7.1,2.3-14,5.1-20.8,8.2
			c-6.8,3.1-13.4,6.6-19.7,10.5c-6.3,4-12.5,8.3-18.2,13c-2.9,2.4-5.7,4.8-8.5,7.4C567.3,185.8,564.7,188.5,562.1,191.2z"/>
	</g>
	<path class="st6" d="M564.8,245.3c-2.9,4-9.1,7-13,4.4c-3.8-2.5-3.7-9.5-1-13.6c3.1-4.7,10.3-7.3,14-4.4
		C568.4,234.5,567.7,241.3,564.8,245.3z"/>
	<g>
		<g>
			<path class="st1" d="M556.7,240.1c1.9,0,1.9-3,0-3C554.7,237.1,554.7,240.1,556.7,240.1L556.7,240.1z"/>
		</g>
	</g>
	<g>
		<g>
			<path d="M558,243.7c3.2,0,3.2-5,0-5C554.8,238.7,554.8,243.7,558,243.7L558,243.7z"/>
		</g>
	</g>
	<g>
		<g>
			<path d="M558,243c2.6,0,2.6-4,0-4C555.4,239,555.4,243,558,243L558,243z"/>
		</g>
	</g>
</g>
<g id="CatColor_2_">
	<path class="st7" d="M771.1,535.1c-1.2,23.2-2.3,46.5-3.5,69.7c19.1-15.8,35.8-26.6,47.6-33.6c14.9-8.8,19.4-10,35.1-20.1
		c14.7-9.4,26.3-16.9,39.1-30.1c9.6-9.9,16.6-19.7,24.1-30.1c6-8.4,10.7-15.7,14-21.1c-1.1-1.8-2.2-4.2-3-7c-1.7-5.8-1.4-10.9-1-14
		c1-0.9,2.4-2.3,4-4c5.8-6,17.5-18.6,25.1-38.1c2.5-6.6,5.6-14.8,6-26.1c0.3-8.9-1.4-16.3-2.1-19.7c-1.3-5.8-3-10.5-4.4-13.9
		c2.9-4.2,2.5-9,0-11c-1.8-1.4-4.2-1.1-5-1c-0.3-1.7-0.9-4.2-2-7c-2.4-6.6-5.8-11.2-9-15c-6-7.3-11.3-12.3-23.1-23.1
		c-2.8-2.5-6.9-6.3-12-11c6.5-6.9,13-13.7,19.5-20.6c-12.7,4.7-25.4,9.4-38.1,14c-8.7-1.7-17.4-3.3-26.1-5
		c-9.7,2.5-20.2,5.8-31.1,10c-4.2,1.6-8.2,3.3-12,5c-1.7,0-3.3,0-5,0c-1-1.7-2-3.3-3-5c-0.3,3.3-0.7,6.7-1,10c-3-0.7-6-1.3-9-2
		c-4.7-3-9.4-6-14-9c-6-4.6-12-9.3-18-14c-6.8-5.4-13.5-10.7-20.1-16c-3,6.3-6,12.7-9,19c7.5,41.3,15,82.5,22.6,123.8
		c1.3,8.6,4.1,21,11,34.6c5.8,11.4,12.6,19.8,18,25.6c-1.6,2.7-1.5,4.1-1,5c0.5,1,1.7,1.5,2,3c0.2,0.8,0.2,1.5,0.1,1.7
		c-0.2,1.2-0.8,2-1.1,2.3c0,1,0,2,0,3c0,1.7,0,3.3,0,5c-1,1.9-2,3.9-3,6c-4.6,10.1-6.9,19.8-8,28.1c-0.7,3.8-1.2,8.6-1,14
		c0.1,3.3,0.5,6.4,1,9C773.4,529.4,772.3,532.2,771.1,535.1z"/>
	<path class="st8" d="M944,247.8c-7.7,3.7-15.4,7.4-23.1,11c-6.7,6.7-13.4,13.4-20.1,20.1c1.6,1.6,4,4.1,7,7
		c15.2,14.9,20.6,18.2,27.1,26.1c3.5,4.3,8.1,10.8,12,20.1c1.3-1,2.7-2,4-3c2.7-5.7,4.2-10.6,5-14c2.7-11,2.5-20.2,2-32.1
		c-0.2-5.9-0.7-10.8-1-14c-1.9-3.3-3.2-6.1-4-8c-1.4-3.4-1.7-4.9-3-7C948.2,250.8,945.8,249,944,247.8z"/>
	<path class="st8" d="M873.4,350.6c-0.7,0-3.5-0.2-4,1c-0.4,0.9,0.5,2.3,1,3c0.4,0.6,0.9,0.9,1,1c1.3,1,5.9,3.7,12,7
		c0.5,0.1,1.7,0.4,3,0c1.7-0.5,2.7-1.6,3-2c2-3.3,4-6.7,6-10c0.1-0.1,0.5-1.1,0-2c-0.5-0.9-1.8-1.4-3-1
		C881.9,350.2,876.5,350.7,873.4,350.6z"/>
	<path class="st8" d="M767.1,311.5c-8.8,12-12.4,23.8-14,31.1c-7-25.1-14-50.1-21.1-75.2c3.7-7,7.4-14,11-21.1
		c9.4,7.7,18.7,15.4,28.1,23.1c4.7,8,9.4,16,14,24.1C780,297.2,773.3,303,767.1,311.5z"/>
	<path class="st9" d="M910,278.9c7.5-8.4,14.6-14.1,19.8-17.6c8.9-6.2,12.2-6.4,14.3-5.4c2.1,1,3.5,3.3,5,10
		c2.4,10.8,1.9,19.4,1,33.1c-1.1,15.8-1.4,18.7-3,19c-2.9,0.7-6.1-7.7-13-17C926.1,290.3,917,283.3,910,278.9z"/>
	<path class="st9" d="M776.6,292.9c-0.7,2.5-2.8,4.6-4.5,6.3c-3.8,3.7-7.6,5.4-8.5,5.8c-11.1,5.2-14.1,28.2-18,28.1
		c-6.9-0.2-17.8-70-3-75.2c6.4-2.3,16,8.2,26.1,19C776.2,285.1,777.6,289.6,776.6,292.9z"/>
	<path class="st10" d="M838.3,440.3c0.6-1.2,25.7,18.7,52.1,11c17.7-5.1,27.1-20,28.1-19c1.1,1-8.8,20.3-27.1,26.1
		C865,466.7,837.6,441.6,838.3,440.3z"/>
	<path class="st10" d="M837.8,558.1c16.9-61.1,31.6-83.6,44.1-83.2c7.4,0.2,15.2,8.5,23.1,28.1c-6.9,8.8-16.2,19-28.1,29.1
		C862.7,544.1,849,552.4,837.8,558.1z"/>
	<path class="st10" d="M791.7,452.8c-0.3,0.1,0.5,2.1,0,5c-0.5,2.6-1.4,2.9-2,5c-1,3.8,1.4,5.5,1,9c-0.5,3.8-3.9,6.1-5,7
		c-10.6,8.9-6.4,50.1-6,50.1c0.2,0-1.7-20.1,3-35.1c2.1-6.8,3.2-10.3,5-12c1.5-1.4,4.8-4,5-8c0-0.2,0-0.5,0-1c-0.1-5.3-1.4-6.4-1-9
		c0.4-2.7,1.8-2.4,2-5C794,455.6,792.1,452.7,791.7,452.8z"/>
	<path class="st10" d="M861.8,400.7c2.3,0.2,9.6,0.6,17-4c7.2-4.4,10.1-10.8,11-13c2,1.9,5,4.4,9,6c7.9,3.2,15,1.6,15,2
		c0,0.4-7.1,2.4-15,0c-3.5-1.1-6.2-2.7-8-4c-1.5,2.3-4.9,6.8-11,10C872,401.8,864.5,401.1,861.8,400.7z"/>
	<path class="st10" d="M759.6,382.7c-0.6,0.1,0,18.3,10,37.1c7.5,14.2,17.6,23.4,18,23.1c0.4-0.3-8.2-9.6-16-25.1
		C761.7,398.1,760.2,382.5,759.6,382.7z"/>
</g>
<g id="Cat_2_">
	<g>
		<path d="M733,264.9l4.8-10.1l4.9-10.1c0.1-0.2,0.3-0.3,0.5-0.2c0,0,0.1,0,0.1,0.1l0,0c4.2,3.6,8.4,7.2,12.7,10.7
			c4.3,3.5,8.7,6.9,13.1,10.3c2.2,1.7,4.4,3.3,6.7,5c2.2,1.7,4.5,3.3,6.7,4.9c4.5,3.2,9.1,6.4,13.7,9.5c-4.8-2.9-9.4-5.9-14-9
			c-2.3-1.6-4.6-3.1-6.9-4.7c-2.3-1.6-4.5-3.3-6.7-4.9c-4.4-3.3-8.8-6.7-13.1-10.3c-4.3-3.5-8.5-7.1-12.6-10.9l0.6-0.1l-5.1,10
			L733,264.9z"/>
	</g>
	<path class="st11" d="M751.6,251.3c9.4,5.7,19.4,11.4,30.1,17c7.5,4,14.9,7.6,22.1,11"/>
	<g>
		<path d="M883,271c5.2-1.7,10.4-3.5,15.5-5.3c5.2-1.8,10.3-3.6,15.4-5.6c10.2-3.9,20.2-8.2,29.9-13.3l0.2-0.1l0.2,0.1
			c1.8,1.1,3.5,2.6,4.8,4.3c1.3,1.7,2.4,3.5,3.3,5.5c1.8,3.8,3,7.9,5.1,11.5l0,0.1l0,0.1c1,10.2,1.7,20.4,1,30.6
			c-0.4,5.1-1,10.2-2.3,15.2c-1.2,5-2.9,9.8-5.2,14.4c2.1-4.6,3.7-9.5,4.8-14.5c1.1-5,1.7-10,2-15.1c0.3-5.1,0.2-10.2,0-15.3
			c-0.2-5.1-0.7-10.2-1.2-15.2l0.1,0.2c-2.1-3.7-3.4-7.8-5.2-11.5c-0.9-1.9-1.9-3.7-3.2-5.3c-1.3-1.6-2.8-3-4.5-4.1l0.5,0
			c-9.7,5.1-19.8,9.3-30.1,13.1c-5.1,1.9-10.3,3.7-15.5,5.3C893.5,267.8,888.3,269.4,883,271z"/>
	</g>
	<g>
		<path d="M804.7,286.4l0.8-9l0.1-0.6l0.3,0.5c0.5,0.8,0.8,1.6,1.2,2.3c0.2,0.4,0.4,0.8,0.6,1.1c0.2,0.3,0.5,0.7,0.8,0.9l-0.2,0
			c0.7-0.2,1.5-0.3,2.2-0.4c0.7-0.1,1.5-0.1,2.2-0.1l-0.1,0c7.1-3.2,14.3-6.1,21.6-8.8c3.7-1.3,7.4-2.5,11.1-3.6
			c3.8-1.1,7.5-2,11.4-2.7l0.1,0l0.1,0c7.8,2,15.8,3.2,23.6,5.1c-4-0.8-7.9-1.4-11.9-2c-4-0.7-8-1.4-11.9-2.3l0.2,0
			c-3.8,0.8-7.6,1.7-11.3,2.8c-3.7,1.1-7.4,2.3-11.1,3.6c-7.3,2.6-14.5,5.5-21.7,8.5l-0.1,0l-0.1,0c-0.7,0-1.4,0-2.2,0
			c-0.7,0-1.4,0.1-2.1,0.3l-0.1,0l-0.1-0.1c-0.4-0.3-0.7-0.7-0.9-1.1c-0.2-0.4-0.4-0.8-0.6-1.2c-0.4-0.8-0.7-1.6-1.1-2.4l0.4-0.1
			L804.7,286.4z"/>
	</g>
	<g>
		<path d="M826.7,275.9c6.2-1.4,12.5-2.4,18.9-2.9c6.4-0.6,12.8-0.7,19.1-0.5c6.4,0.3,12.7,0.9,19,2c3.1,0.5,6.3,1.2,9.4,1.9
			c3.1,0.8,6.2,1.6,9.2,2.5c-6.2-1.5-12.4-2.7-18.7-3.6c-3.1-0.4-6.3-0.8-9.5-1.1c-3.2-0.3-6.3-0.5-9.5-0.6
			c-6.3-0.3-12.7-0.2-19,0.2C839.4,274.1,833,274.9,826.7,275.9z"/>
	</g>
	<g>
		<path d="M905.4,273.9c2.5-3,5.2-5.9,7.9-8.6c2.8-2.7,5.6-5.4,8.6-7.9c-2.5,3-5.2,5.9-7.9,8.6C911.3,268.7,908.5,271.4,905.4,273.9
			z"/>
	</g>
	<g>
		<path d="M905.4,282.9c5.1,4.6,10.2,9.2,15.2,13.8c2.6,2.3,5,4.7,7.4,7.1c2.4,2.4,4.9,4.9,7.1,7.5c1.1,1.3,2.2,2.7,3.2,4.1
			c1,1.4,2,2.8,3,4.2c1.9,2.8,3.7,5.8,4.9,9.1c1.2,3.3,1.9,6.7,2.1,10.1c0.2,3.4-0.1,6.9-0.9,10.2c1.2-6.7,0.6-13.8-1.9-20.1
			c-1.3-3.1-3-6.1-5-8.9c-1-1.4-2-2.8-3-4.1c-1-1.4-2.1-2.7-3.2-4c-2.2-2.6-4.6-5-7-7.5c-2.4-2.4-4.9-4.8-7.3-7.2
			C915.2,292.5,910.3,287.8,905.4,282.9z"/>
	</g>
	<g>
		<path d="M874.4,313.5c0.3-3.7,0.3-7.3,0.1-10.8c-0.1-1.8-0.3-3.5-0.6-5.3c-0.3-1.7-0.7-3.5-1.1-5.2c-0.9-3.4-2.2-6.7-3.9-9.9
			c-1.6-3.1-3.6-6.1-5.9-9c3,2.1,5.6,4.9,7.6,8c1,1.5,1.9,3.2,2.7,4.9c0.7,1.7,1.4,3.5,1.9,5.3c1,3.6,1.5,7.4,1.3,11.1
			C876.3,306.4,875.7,310,874.4,313.5z"/>
	</g>
	<g>
		<path d="M866.3,315c-0.3-3.8-0.6-7.4-1.2-11.1c-0.3-1.8-0.7-3.6-1.1-5.4c-0.4-1.8-0.9-3.5-1.5-5.3c-0.5-1.7-1.2-3.5-1.9-5.2
			c-0.7-1.7-1.5-3.4-2.3-5c-1.6-3.3-3.5-6.5-5.5-9.7c2.8,2.5,5.2,5.5,7.2,8.7c2,3.2,3.6,6.7,4.8,10.4c1.2,3.6,1.9,7.4,2.2,11.2
			C867.3,307.5,867.1,311.3,866.3,315z"/>
	</g>
	<g>
		<path d="M949.1,333.5c1.4,0.2,2.7,0.7,3.7,1.6c1,1,1.6,2.3,1.8,3.7c0.2,1.4,0,2.8-0.4,4.1c-0.4,1.3-1.1,2.6-1.9,3.7l0-0.2
			c1.7,4.4,3.2,8.9,4.5,13.5c0.7,2.3,1.2,4.6,1.7,6.9c0.5,2.3,1.2,4.6,1.4,7c0.3,2.4,0.4,4.8,0.3,7.1c-0.1,2.4-0.3,4.7-0.7,7.1
			c-0.8,4.7-2,9.3-3.5,13.8c-1.5,4.5-3.3,8.9-5.5,13.1c-2.2,4.2-4.6,8.3-7.2,12.3c-5.2,7.9-11.4,15.2-18.1,21.8l0.1-0.2
			c-0.5,3.8-0.3,7.7,0.5,11.4c0.8,3.7,2.2,7.4,4.3,10.6c-4.2-6.4-6.1-14.4-5.3-22.1l0-0.1l0.1-0.1c6.6-6.7,12.5-14.1,17.7-21.9
			c2.6-3.9,5-8,7.1-12.2c2.1-4.2,3.8-8.6,5.4-13c1.5-4.4,2.7-9,3.5-13.6c0.4-2.3,0.6-4.6,0.7-7c0.1-2.3,0-4.7-0.2-7
			c-0.2-2.3-0.8-4.6-1.3-6.9c-0.5-2.3-1-4.6-1.6-6.9c-1.2-4.6-2.6-9-4.2-13.5l0-0.1l0.1-0.1c0.8-1.1,1.5-2.3,2-3.5
			c0.4-1.3,0.7-2.7,0.5-4c-0.1-1.3-0.7-2.7-1.6-3.6C951.7,334.3,950.4,333.8,949.1,333.5z"/>
	</g>
	<g>
		<path d="M832.3,428.3c1.6,2.4,3.5,4.5,5.7,6.1c2.2,1.7,4.7,2.9,7.4,3.9C839.5,437.9,834.1,433.7,832.3,428.3z"/>
	</g>
	<g>
		<path d="M853.8,438.8c2.5,0.9,5,1.8,7.6,2.5c2.6,0.8,5.1,1.5,7.7,2c2.6,0.6,5.2,1.1,7.8,1.5c1.3,0.2,2.6,0.4,4,0.5
			c1.3,0.2,2.7,0.3,4,0.4c-1.3,0.1-2.7,0.1-4,0c-1.3,0-2.7-0.1-4-0.3c-2.7-0.2-5.3-0.7-8-1.3c-2.6-0.6-5.2-1.3-7.7-2.3
			C858.6,441.1,856.2,440.1,853.8,438.8z"/>
	</g>
	<g>
		<path d="M887.9,440.8c0.5,0.8,1,1.7,1.7,2.3c0.3,0.3,0.8,0.5,1.2,0.5c0.4,0,0.8-0.3,1.1-0.6c0.3-0.3,0.6-0.7,1-1.1
			c0.2-0.2,0.4-0.4,0.8-0.4c0.3-0.1,0.7,0,0.9,0.2c0.5,0.4,0.7,0.9,1,1.3l0.6,1.3c0.2,0.4,0.4,0.8,0.7,1c0.3,0.2,0.5,0.1,0.8-0.1
			c0.6-0.5,1.2-1.4,1.7-2.2c1.1-1.6,2.3-3.2,3.8-4.5c0.4-0.3,0.8-0.6,1.2-0.9c0.4-0.3,0.8-0.6,1.3-0.8c0.9-0.5,1.8-0.8,2.7-1.2
			c1.7-0.8,3.2-1.9,4.6-3.2c2.7-2.7,4.6-6.1,6.1-9.6c-0.6,1.8-1.3,3.6-2.2,5.4c-0.9,1.7-2,3.4-3.3,4.8c-1.3,1.5-3,2.7-4.8,3.5
			c-0.9,0.4-1.8,0.7-2.6,1.2c-0.8,0.5-1.6,1-2.3,1.7c-1.4,1.2-2.6,2.7-3.7,4.2c-0.6,0.8-1.1,1.6-1.9,2.3l-0.4,0.2
			c-0.2,0.1-0.3,0.1-0.5,0.2c-0.3,0-0.7,0-1-0.2c-0.5-0.4-0.7-0.9-0.9-1.4l-0.5-1.4c-0.2-0.4-0.4-0.9-0.7-1.1
			c-0.3-0.2-0.6-0.2-1,0.1c-0.3,0.3-0.6,0.7-1,1c-0.4,0.3-0.9,0.7-1.4,0.6c-0.6,0-1-0.4-1.4-0.7
			C888.7,442.6,888.3,441.7,887.9,440.8z"/>
	</g>
	<path class="st11" d="M854.8,438.8"/>
	<g>
		<path d="M848.3,398.2c8.1,2.9,17.2,2.1,24.9-1.5c1-0.4,1.9-1,2.8-1.4c0.9-0.6,1.8-1,2.7-1.7c1.8-1.2,3.3-2.6,4.8-4.1
			c1.4-1.5,2.6-3.3,3.4-5.2c0.9-1.9,1.1-4,1.1-6.1c0-1.1-0.1-2.1-0.2-3.2l0-0.4c0-0.1,0-0.2,0-0.2c0-0.1,0-0.1,0.2-0.5
			c0-0.1,0.3-0.2,0.4-0.2c0.1,0,0.2,0.1,0.3,0.1c0,0,0.1,0.1,0.1,0.1c0.1,0.1,0.1,0.2,0.1,0.2c0,0.1,0.1,0.2,0.1,0.3l0.1,0.4
			l0.3,1.6c0.4,2.1,1,4.1,2.2,5.8c1.2,1.7,2.9,3,4.7,4c1.8,1,3.9,1.7,5.9,2.3c4.1,1.1,8.4,1.5,12.7,1.5c4.3,0,8.5-0.6,12.7-1.8
			c-8.2,2.8-17.1,2.9-25.5,1c-2.1-0.5-4.2-1.2-6.1-2.3c-1.9-1.1-3.7-2.4-5-4.2c-1.4-1.8-2-4-2.4-6.1l-0.3-1.6l-0.1-0.4
			c0-0.1,0-0.1,0-0.1c0,0,0,0,0,0.1c0,0,0,0,0.1,0.1c0,0,0.1,0.1,0.2,0.1c0.1,0,0.1,0,0.2,0c0.1,0,0.1-0.1,0.1-0.1
			c0.1-0.2,0-0.1,0.1-0.1l0,0.2l0,0.4c0.1,1,0.2,2.1,0.2,3.2c0.1,2.2-0.2,4.5-1.2,6.5c-0.9,2-2.2,3.9-3.7,5.4c-1.5,1.6-3.2,3-5,4.2
			c-0.9,0.7-1.8,1.1-2.8,1.7c-1,0.5-1.9,1-2.9,1.4c-4,1.7-8.2,2.8-12.6,3C856.6,400.6,852.3,399.8,848.3,398.2z"/>
	</g>
	<g>
		<path d="M872.4,356.1c1.7,0.5,3.2,1.2,4.8,2.1c1.5,0.8,3,1.8,4.3,2.9c-1.7-0.5-3.2-1.2-4.8-2.1
			C875.1,358.2,873.7,357.3,872.4,356.1z"/>
	</g>
	<g>
		<path d="M888.9,359.6c0.7-1.7,1.6-3.3,2.6-4.8c1-1.5,2.1-3,3.4-4.2c-0.7,1.7-1.6,3.3-2.6,4.8C891.3,356.9,890.2,358.3,888.9,359.6
			z"/>
	</g>
	<g>
		<path d="M873.4,351.1c3.1-0.9,6.3-1.5,9.4-2c3.2-0.5,6.4-0.9,9.6-1c-3.1,0.9-6.3,1.5-9.4,2C879.8,350.6,876.6,351,873.4,351.1z"/>
	</g>
	<g>
		<path d="M809.2,343.1c2.8-0.7,5.3-1.7,7.7-3.1c1.2-0.7,2.3-1.4,3.4-2.3c1.1-0.8,2.1-1.7,3-2.7l0.4-0.5l0.7,0.1
			c2.3,0.3,4.7,0.6,7,0.9c2.3,0.3,4.7,0.7,7,1.2c1.2,0.2,2.3,0.4,3.5,0.7c1.2,0.2,2.3,0.5,3.5,0.8c2.3,0.5,4.6,1.1,6.9,1.9
			c-2.4,0.1-4.8,0-7.1-0.1c-1.2-0.1-2.4-0.1-3.5-0.2c-1.2-0.1-2.4-0.2-3.5-0.3c-2.4-0.2-4.7-0.5-7-0.8c-2.3-0.3-4.7-0.7-7-1.1
			l1.2-0.4c-1.1,1-2.3,1.9-3.5,2.7c-1.3,0.8-2.6,1.5-4,2C815,342.8,812.1,343.3,809.2,343.1z"/>
	</g>
	<g>
		<path d="M933.5,335c-2.1-0.2-4.2-0.6-6.3-1.1c-1-0.2-2.1-0.5-3.1-0.7c-1-0.3-2-0.5-3.1-0.8l1.2-0.1c-3.2,2.2-6.7,3.9-10.4,5.3
			c-0.9,0.3-1.8,0.6-2.8,0.9c-0.9,0.3-1.9,0.5-2.8,0.8c-1.9,0.4-3.8,0.8-5.8,0.9c1.7-0.9,3.5-1.7,5.2-2.5l2.6-1.2l2.5-1.2
			c3.4-1.7,6.7-3.4,10-5.2l0.6-0.3l0.5,0.2c1,0.4,2,0.8,3,1.2c1,0.4,2,0.8,2.9,1.3C929.7,333,931.6,334,933.5,335z"/>
	</g>
	<g>
		<path d="M787.6,305.5c-2.3-1.7-4.3-3.7-6.4-5.7l-0.9-0.8l1.2,0c1.5,0,3,0,4.5,0.1c0.8,0,1.5,0.1,2.3,0.1c0.8,0.1,1.5,0.1,2.3,0.3
			c-0.8,0.1-1.5,0.2-2.3,0.3c-0.8,0.1-1.5,0.1-2.3,0.1c-1.5,0.1-3,0.1-4.5,0.1l0.4-0.8C784,301.1,785.9,303.2,787.6,305.5z"/>
	</g>
	<g>
		<path d="M827.2,370.1c-4.4-0.3-8.7-0.7-13.1-1.1c-4.4-0.4-8.7-0.9-13-1.4c-4.3-0.5-8.7-1-13-1.6l-6.5-0.9c-2.2-0.3-4.3-0.6-6.5-1
			c2.2,0.1,4.4,0.3,6.5,0.5l6.5,0.6c4.4,0.4,8.7,0.9,13,1.4c4.3,0.5,8.7,1,13,1.6C818.6,368.8,822.9,369.4,827.2,370.1z"/>
	</g>
	<g>
		<path d="M826.7,378.7c-5.9-0.2-11.9-0.4-17.8-0.5c-5.9-0.1-11.9-0.2-17.8-0.2c-5.9,0-11.9,0-17.8,0.2l-8.9,0.3
			c-3,0.1-5.9,0.2-8.9,0.2c3-0.3,5.9-0.4,8.9-0.7l8.9-0.6c3-0.2,5.9-0.3,8.9-0.3c3-0.1,5.9-0.1,8.9-0.1c5.9,0,11.9,0.1,17.8,0.4
			c3,0.1,5.9,0.3,8.9,0.5C820.8,378.1,823.8,378.3,826.7,378.7z"/>
	</g>
	<g>
		<path d="M824.7,384.7c-2.7,0.3-5.5,0.6-8.2,1.1c-2.7,0.4-5.4,0.9-8.1,1.5c-2.7,0.6-5.3,1.3-8,2c-1.3,0.4-2.6,0.8-3.9,1.2
			c-1.3,0.4-2.6,0.8-3.9,1.3c1.2-0.6,2.5-1.2,3.8-1.7c1.3-0.5,2.6-1,3.9-1.5c2.6-0.9,5.3-1.6,8-2.2c2.7-0.6,5.4-1,8.2-1.3
			C819.2,384.7,822,384.6,824.7,384.7z"/>
	</g>
	<g>
		<path d="M957.6,363.6c21.1-0.5,42.2,0.3,63.2,2.5c-21-1.9-42.1-2.4-63.1-1.5L957.6,363.6z"/>
	</g>
	<g>
		<path d="M935.5,366.1c1.9-0.6,3.8-0.9,5.7-1.1c1.9-0.2,3.8-0.3,5.8-0.1c-1.9,0.6-3.8,0.9-5.7,1.1
			C939.4,366.2,937.5,366.3,935.5,366.1z"/>
	</g>
	<g>
		<path d="M959.6,374.6c13.4,0.9,26.6,3.7,39.1,8.5c-12.6-4.5-25.8-7-39.1-7.5L959.6,374.6z"/>
	</g>
	<g>
		<path d="M940.5,374.1c1.4-0.4,2.7-0.4,4.1-0.4c1.4,0.1,2.7,0.2,4,0.6c-1.4,0.4-2.7,0.4-4.1,0.4
			C943.2,374.7,941.9,374.6,940.5,374.1z"/>
	</g>
	<g>
		<path d="M959.9,381c5.3,1.1,10.3,3.5,14.4,6.9c-4.3-3.2-9.3-5.3-14.6-6L959.9,381z"/>
	</g>
	<g>
		<path d="M761.1,409.2c0.9,2.9,1.9,5.8,3.1,8.5c1.2,2.8,2.5,5.5,4.1,8.1c1.5,2.6,3.2,5.1,5,7.5c0.9,1.2,1.9,2.4,2.9,3.5
			c1,1.2,2,2.3,3,3.4c-1.2-1-2.3-2-3.4-3.1c-1.1-1.1-2.1-2.2-3.1-3.4c-2-2.3-3.7-4.9-5.3-7.5c-1.5-2.7-2.9-5.4-3.9-8.3
			c-0.5-1.4-1-2.9-1.4-4.4C761.7,412.2,761.3,410.7,761.1,409.2z"/>
	</g>
	<g>
		<path d="M781.6,443.8l4.1,4.9l0.1,0.1l-0.1,0.1c-0.8,1.4-1.4,3.1-1,4.7c0.1,0.4,0.3,0.7,0.6,1c0.2,0.3,0.6,0.6,0.9,0.9
			c0.6,0.7,0.9,1.6,0.8,2.6c-0.2,0.9-0.5,1.7-0.8,2.5c-0.2,0.8-0.4,1.6-0.4,2.4c-0.1,0.8,0.1,1.6,0.2,2.5c0.1,0.9,0.1,1.8-0.1,2.6
			c-0.3,1.7-1,3.4-1.9,4.8c-0.9,1.4-1.5,2.9-2.2,4.5c-1.2,3.1-2.2,6.4-3.1,9.6c-0.9,3.2-2,6.5-2.7,9.7c-0.7,3.3-1.2,6.6-1.5,10
			c-0.6,6.7-0.5,13.5,0,20.3c-0.8-6.7-1.1-13.5-0.7-20.3c0.2-3.4,0.6-6.8,1.3-10.1c0.7-3.4,1.7-6.6,2.6-9.8c0.9-3.3,2-6.5,3.2-9.7
			c0.6-1.6,1.3-3.2,2.3-4.6c0.9-1.4,1.6-2.9,1.8-4.5c0.1-0.8,0.2-1.6,0.1-2.4c-0.1-0.8-0.2-1.7-0.1-2.6c0.1-0.9,0.2-1.7,0.5-2.6
			c0.2-0.8,0.7-1.6,0.8-2.4c0.1-0.7-0.1-1.5-0.6-2.1c-0.2-0.3-0.6-0.6-0.9-0.9c-0.3-0.4-0.5-0.8-0.6-1.2c-0.3-0.9-0.2-1.8,0.1-2.6
			c0.2-0.8,0.6-1.6,1.1-2.3l0,0.2L781.6,443.8z"/>
	</g>
	<g>
		<path class="st10" d="M785.6,292.4c-4.7-7.7-9.4-15.4-14-23.1"/>
		<path d="M785.6,292.4c-1.3-1.8-2.6-3.7-3.8-5.6c-1.2-1.9-2.4-3.8-3.6-5.7c-1.2-1.9-2.3-3.9-3.4-5.8l-1.6-3c-0.5-1-1.1-2-1.5-3
			c0.7,0.9,1.3,1.8,2,2.8l1.9,2.8c1.2,1.9,2.4,3.8,3.6,5.7c1.2,1.9,2.3,3.9,3.4,5.8C783.6,288.4,784.6,290.4,785.6,292.4z"/>
	</g>
</g>
<g id="DogCollar_2_">
	<path class="st12" d="M663.3,698.5c-5.7,5.7-11.4,11.4-17,17c-14.7-5.3-26.9-10.2-36.1-14c-30.6-12.7-38.1-17.9-44.1-23.1
		c-8-6.9-13.3-13.8-18-20.1c-8.5-11.1-14.3-21.4-18-29.1c5.3-3.7,10.7-7.4,16-11c3.7,8.8,10.1,20.6,20.1,30.1c5.9,5.6,14,11.3,15,12
		c12.4,7.4,26.4,14.9,42.1,22.1C637.4,688.9,650.8,694.2,663.3,698.5z"/>
	<path class="st13" d="M540.5,646.8c4.7-3.7,9.4-7.4,14-11c1,1.3,2,2.7,3,4c-1.4,1.7-1.4,4.3,0,6c1.5,1.8,4,2.2,6,1
		c1.3,1.3,2.7,2.7,4,4c-5,4.3-10,8.7-15,13c-1-1.3-2-2.7-3-4c1.2-1.8,1.2-4.2,0-6c-1.3-1.9-3.8-2.7-6-2
		C542.5,650.2,541.5,648.5,540.5,646.8z"/>
	<path class="st13" d="M544.5,652.9c0.3,0,1.8-0.1,3,1c1.1,1,1.4,2.5,1,4c-0.3,0.3-0.7,0.7-1,1c-1.3-1.7-2.7-3.3-4-5
		C543.9,653.5,544.2,653.2,544.5,652.9z"/>
	<path class="st14" d="M562.4,646.5c-0.3,0.1-1.7,0.2-2.9-0.6c-1.2-0.9-1.9-2.5-1.6-4.1c0.2-0.4,0.5-0.8,0.7-1.2
		c1.5,1.6,3,3.1,4.5,4.7C562.9,645.7,562.7,646.1,562.4,646.5z"/>
	
		<rect x="605.9" y="676.9" transform="matrix(0.9104 0.4138 -0.4138 0.9104 339.4286 -190.2509)" class="st14" width="6" height="23.1"/>
	
		<rect x="614.9" y="680.9" transform="matrix(0.9104 0.4138 -0.4138 0.9104 341.8965 -193.6249)" class="st14" width="6" height="23.1"/>
</g>
<g id="DogColor">
	<path class="st15" d="M771.6,513c-0.8-5.7-2-9-2-9c-1.6-4.4-2.3-6.5-4-9c-1.7-2.6-2.8-3.7-5-7c-1-1.5-1.8-2.4-2-4
		c-0.1-0.4-0.3-2.1,1-5c1.3-3,2.1-2.7,4-6c1.3-2.3,2.1-4.5,3-7c0.5-1.4,0.7-2.1,1-3c0.7-2.4,2.2-8.1,0-13c-0.7-1.6-1.3-1.9-2-4
		c-0.6-1.8-0.9-3.4-1-5c-0.4-4-0.2-7.9,0-11c-2.5-0.6-4.6-1.4-6-2c-3.3-1.4-5.1-2.2-6-4c-0.7-1.4-0.2-1.9-1-4c0,0,0,0,0,0
		c-0.3-0.7-0.4-1.9-0.2-3.7c0.3-3,0.6-5.5,1.2-7.3c-40.3-34.2-61.3-37.5-73.2-33.1c-6.1,2.3-18.6,9.9-33.1,7c-5-1-10.1-1.8-15-3
		c0,0-5.8-1.4-17-1c-0.7,0-1.2,0.1-1.6,0.3c-0.8,0.3-1.3,0.6-1.4,0.7c-1.5,1.1-6.1,2.7-7,3c-3.9,1.4-8-0.1-13,0
		c-6.3,0.1-10.8,0.1-14,3c-3.8,3.4-2.1,7.2-7,12c-1.7,1.7-3.1,2.4-6,4c-8.9,4.8-11.4,2.6-15,6c-3.2,3-4.2,7.3-6,16
		c-0.5,2.5-0.8,4.6-1,6c-4.6,4.9-11.9,14.1-14,27.1c-0.9,5.4-0.5,9.6-0.5,10.8c0,0,0.9,11.1,8,21.8c13.9,20.8,72.9,27.8,80.7,47.6
		c4.9,12.4-6.2,35.8-69.2,83.2c2.1,4.9,5.5,11.8,11,19c7.6,10.1,18.2,19.8,51.1,36.1c13.8,6.9,32,15.1,54.1,23.1
		c14.8-17.2,33-36.2,55.1-55.1c17.1-14.6,33.7-26.9,49.1-37.1c0.3-15.7,0.7-28.4,1-37.1c0,0,1-27.7,1-43.1c0-2.1-0.1-3.1,0-5
		c0.2-2.7,0.3-4.1,1-5c0.2-0.3,0.8-1,1-2C771.7,513.5,771.6,513.2,771.6,513z"/>
	<path class="st16" d="M587.1,461.9c-2.1,10.3,4.2,20.8,14,24.1c10.9,3.6,23.8-2.4,27.1-14c3.2-11.3-3.8-23.1-15-26.1
		C601.6,442.8,589.5,450.4,587.1,461.9z"/>
	<path class="st17" d="M655.3,571.1c2.6-8.6-14.5-19-41.1-46.1c-20.7-21.1-21.1-25.6-20.1-28.1c4.3-10.4,38.8,3.3,48.1-10
		c9.9-14.1-9.1-57.3-34.1-57.1c-10.7,0.1-23.4,8.1-27.1,19c-4.1,12.5,5.7,22.7,0,29.1c-4.4,4.9-15.5,4.8-19,0
		c-5.4-7.3,10.4-20.6,5-32.1c-3.5-7.4-14.4-11.4-22.1-9c-15.3,4.7-18.6,35-9,42.1c1.8,1.3,5.2,2.8,12,1c-5.5,7.8-9.3,13.6-10,15
		c-0.7,1.5-1.1,2.4-1.1,2.4c-0.2,0.5-0.4,0.9-0.7,1.5c-0.3,0.6-0.6,1.3-1.2,2.2c-2,3.3-4.2,5.4-6,7c-9.8,9-18,15-18,15
		c-4,2.9-5.9,4.1-8,7c-2.8,3.8-3.7,7.5-4,9c-1.2,6,0.2,10.9,1,13c-2.2,2.8-5.2,7.6-6,14c-0.2,1.9-0.2,3.6,0,7c0.3,6.8,0.6,12.1,3,18
		c1.7,4.1,2.9,7.2,6,9c3,1.8,6.2,1.6,12,1c10.1-1,13.7-1.7,17-2c10.2-1,12.2,2.1,29.1,4c7.7,0.9,13.6,1,18,1
		c13.1-0.1,25.5-0.2,37.1-7c3.1-1.8,1.7-1.5,11-8c9.4-6.6,18-11,18-11C652.4,576.2,654.6,573.4,655.3,571.1z"/>
	<path class="st10" d="M503.9,537.8c1.6,2.3,9.8-2.8,18.7,0.8c2.2,0.9,1.9,1.3,3.3,1.5c6.1,1.2,11.8-7.2,21.2-18.3
		c14.5-17.1,20.5-20.3,18.7-23.7c-2-3.9-12.5-4.3-19.6-0.8c-2.7,1.4-3.6,2.7-8.1,7.6c-10.8,11.8-16.1,17.7-20.4,19.8
		c-3.9,2-8.7,3.5-12.2,8.4C504.6,534.4,503.1,536.6,503.9,537.8z"/>
	<path d="M492.9,557.1c0.1-0.4,0.6-2.2,2-3c2.1-1.2,5.7,0.4,7,3c1.6,3.1-0.5,6.5-2,8c-1.7,1.7-4.3,2.7-5,2c-0.7-0.6,0.7-2,0-4
		c-0.5-1.4-1.5-1.4-2-3C492.5,558.8,492.8,557.5,492.9,557.1z"/>
	<path d="M522,564.1c2.2,1.2,2.1,2.1,4,3c1.8,0.9,3,0.6,3,1c0.1,0.7-2.9,2-6,2c-0.7,0-5.6,0-7-3c-0.1-0.1-0.8-1.8,0-3
		c0.8-1.1,2.4-1,3-1C520.2,563.2,521.1,563.7,522,564.1z"/>
	<path class="st18" d="M534,564.1c-1.2,1.8-3.7,3.3-6,3c-3.5-0.4-4-4.3-8-5c-2.4-0.4-5.3,0.4-6,2c-0.8,1.9,1.5,4.8,4,8
		c1.8,2.3,3.3,3.1,3,4c-0.4,1.1-3.4,1.3-5,1c-6.9-1.2-10.3-13.1-11-16c0-0.5-0.5-1-1-1s-1,0.5-1,1c0.2,0.9,0.5,2.3,1,4
		c2,6.4,4.9,8.9,4,10c-0.8,1.1-4.6-0.2-7-2c-0.2-0.2-4.8-3.7-4-7c0.4-1.5,1.4-1.4,2-3c1.3-3.2-1.2-8-3-8c-1.1,0-1.8,1.6-2,2
		c-1.3,2.7,1.2,5.9,1,6c-0.2,0.1-3.7-3.6-4-9c-0.1-1.3-0.2-3.5,1-6c1.5-3,4-4.5,5-5c2.7-1.5,5.1-1.5,13-1c13.6,0.9,15.4,1.7,17,3
		c2.5,1.9,3.7,4.2,5,7C534.1,556.6,536.1,560.9,534,564.1z"/>
	<path class="st10" d="M496.9,546.1c1.4-4.8,23.6-4.8,25.1,0c0.9,2.8-5,8.8-12,9C502.3,555.4,496.1,549,496.9,546.1z"/>
	<path class="st19" d="M521,604.9c2.1-1.3,5.5-3.1,10-3.6c2.6-0.3,4.7-0.1,6,0.1c9.4,1.2,24.2,5.2,27.1,5.9
		C549.7,606.4,535.3,605.7,521,604.9z"/>
	<path class="st17" d="M539,433.8c-2.4-3.7-5.5-9.5-6-17c-0.2-2.3,0-3.7,1-13c2-17.6,2-17.6,2-19c-0.1-9.8-3-9.6-4-21.1
		c-0.7-7.3,0-12.8,1-21.1c0.8-6.2,2-13.3,4-21.1c0.1,3.2,0.3,8,0,14c-0.4,8.2-1,9.1-1,15c0,2.6,0.2,9.5,2,18c1.4,6.6,2.3,6.8,3,12
		c0.2,1.5,0.4,3.8,0,14c-0.5,10.5-0.7,15.7-1,19c-0.3,2.9-0.7,6.8,0,12c0.3,2.1,0.7,3.9,1,5C540.3,431.8,539.7,432.8,539,433.8z"/>
	<path class="st8" d="M541,430.8c-2.4-0.3-1.2-23.9-1-28.1c0.7-13.9,2-21.2-1-31.1c-0.7-2.3-1.4-3.8-2-7c-0.8-4.1-0.6-5.9-1-19
		c0-1.1-0.1-2.3,0-4c0.1-1.7,0.2-3.3,1-8c0.3-1.6,0.6-3.6,1-6c0,0,0-3.4,0-4c0-8.2-0.1-8.3,0-10c0.2-3.5,1-8,1-8
		c0.9-4.7,1.3-7.1,2-10c0,0,1-4.2,2-8c2.9-10.5,7.9-22.4,9-25.1c1.8,6.5,3.7,11.5,5,15c2.7,7.4,3.6,9,5,13c4,10.9,2.2,12.2,7,33.1
		c2.7,11.8,2.6,10.4,4,18c1.3,7.2,1.4,9.2,3,13c0.8,2,3.4,7.9,9,13c3.2,2.9,4.1,2.6,11,8c7.2,5.6,7.2,6.7,7,7c-0.6,1.3-4.8-0.5-12,0
		c-3.4,0.2-8.8,0.6-13,4c-3.8,3.1-3,5.7-6,10c-5.4,7.9-12.5,5.6-20.1,12C542.1,417.2,543,431,541,430.8z"/>
	<path class="st17" d="M614.2,378.7c-1.1-4.5-3-11.2-6-19c-1.4-3.7-2.9-7.1-6-14c-3-6.8-6.9-15.2-10-22.1c-0.7-1.7-2.2-4.8-4-9
		c-1.5-3.4-1-2.4-3-7c-2.3-5.4-3.4-7.8-4.6-11.6c-0.3-1-0.6-1.8-0.7-2.4c0,0-0.3-1.1-0.7-2.1c-1.8-5.9-2.7-8.8-4-11
		c-0.6-1-1.5-2.4-4-5c-6.4-6.6-17.1-14.9-19-13c-0.7,0.7,0,2.3,1,5c0,0,4.6,11.7,10,27.1c1.7,4.8,2.8,9.1,4,15c1,4.9,0.7,4.5,3,19
		c0,0,1.7,10.6,3,16c0.8,3.2,1.7,6.8,1.7,6.8c0.1,0.4,0.2,0.8,0.3,1.2c1.7,6,5.3,10.6,9,14c1.6,1.3,4.1,3.3,7,6
		c6.9,6.3,8.9,9.6,13,10c1.5,0.2,3.9,0,7-2"/>
	<path class="st17" d="M648.3,383.7c2.8-10.4,8.6-30.5,17-50.1c1.7-3.9,4.6-10.6,9-19c1.3-2.4,4.5-8,11-19c3.5-6,5.8-9.8,9-14
		c1.1-1.4,1.8-2.2,3-4c3.4-4.9,3.5-6.4,6-9c1.5-1.6,2.9-2.5,5-4c2.1-1.5,4.5-3.1,7-4c4.1-1.5,10.9-1.7,15,2c3.5,3.1,4.5,8.3,6,16
		c0.1,0.6,0.4,2.1,1,4c0.6,1.7,1,2.7,2,5c0,0,1,2.3,2,5c1.5,3.8,2.4,6.9,3,9c1.7,5.7,2.5,8.5,3,12c0.5,3.7,0.2,4.4,1,10
		c0.4,3.2,0.9,5.3,1,6c0.8,3.8,1.6,6.7,2,8c2,6.8,3,10.2,5,16c4.6,13.4,1.4,30.3,0,38.1c-2.6,14.1-4.4,26.8-12,29.1
		c-4.4,1.3-9.5-1.2-11-2c-6-3-9-8.3-10-10c-4.1-7-15-24.3-31.1-31.1c-4.4-1.8-11.5-4.8-18-2c-4.8,2.1-5.8,5.8-11,8
		C658,386,652.3,385,648.3,383.7z"/>
	<path class="st8" d="M657.3,379.7c-0.9-17.4,14-47.1,14-47.1c5-10,17.3-35.4,31.1-57.1c1.8-2.8,5.9-9.1,13-11c0.7-0.2,8.3-2.2,13,2
		c2.4,2.2,2.6,4.7,4,10c2.1,8.3,3,7.4,6,17c2.6,8.5,3.3,13.6,5,22.1c4.7,23.8,7.1,22.9,9,37.1c1.1,7.8,2.6,19.2,0,33.1
		c-0.6,3.1-5.9,32-17,33.1c-8.9,0.9-12.6-16.9-27.1-18c-8-0.6-11,4.4-16,2c-8.9-4.3-4.6-22.3-12-25.1c-6.8-2.5-16.2,10.2-21.1,7
		C657.7,383.6,657.4,381.2,657.3,379.7z"/>
	<path class="st9" d="M727.5,401.7c-5.3-0.7-5.8-10.6-12-12c-6.1-1.4-9.5,7.1-15,6c-8.2-1.6-6.5-21.8-16-25.1
		c-7.6-2.6-14.5,8.2-18,6c-6.5-4,10.9-43,30.1-74.2c12.7-20.7,17.3-23.5,21.1-23.1c2.8,0.3,7.6,2.8,18,45.1
		c10.3,41.8,9.9,56.9,3,68.2C737.6,394.2,732.6,402.4,727.5,401.7z"/>
	<g>
		<path d="M552,265.4c4.7,9.1,8.7,18.6,11.6,28.5c1.5,4.9,2.6,9.9,3.5,15l2.9,15.1l2.8,15.1l1.4,7.6c0.5,2.5,1.1,5,2.1,7.3
			c1.9,4.7,4.8,9,8.3,12.7c3.5,3.7,7.6,6.8,12,9.5c-4.5-2.5-8.7-5.5-12.3-9.2c-3.6-3.7-6.7-8-8.7-12.7c-1.1-2.4-1.7-4.9-2.2-7.4
			l-1.5-7.6l-2.9-15.1l-2.8-15.1c-0.9-5-2-10-3.4-15c-1.4-4.9-3-9.8-4.9-14.6C556.3,274.7,554.2,270,552,265.4z"/>
	</g>
	<path class="st20" d="M712.5,488.9c1.4,1.4,5.9,5.7,5,7c-0.7,1-4.1-1.1-5,0c-2.2,2.4,11.5,17.6,10,19c-1,1-7.9-5.1-9-4
		c-1.5,1.5,9.5,14.6,8,16c-1.1,1.1-7.7-5.6-10-4c-3.1,2.1,4.8,16.2,2,18c-2.3,1.6-11-6.1-10-8c0.6-1.1,4,0.4,5-1
		c1.6-2.3-5.6-8.3-4-11c1.3-2.2,6.7,0.1,8-2c1.9-3.1-7.2-11.7-6-13c0.9-1,6.1,3,7,2c1.4-1.5-9.6-13.2-8-15c0.9-1,5.2,2,6,1
		c1.3-1.5-7.7-10.3-7-11C704.9,482.4,709.1,485.6,712.5,488.9z"/>
	<path class="st20" d="M573.5,412.2c1.5-1.6,6.5-6.8,8.2-6.2c1.4,0.5-0.8,4.2,0.7,5c3.3,1.8,20.7-14.4,22.8-13.2
		c1.4,0.8-5.4,8.7-3.9,9.6c2,1.2,17.2-11.9,19.2-10.7c1.5,0.9-6.1,8.5-3.7,10.6c3.1,2.7,19.8-7.5,22.6-5.1c2.3,2-6.3,11.9-8.8,11.3
		c-1.4-0.4,0-4.1-1.9-4.8c-3.1-1.2-9.8,6.9-13.4,5.8c-2.9-0.9-0.7-6.6-3.6-7.6c-4.2-1.4-13.8,9.2-15.7,8.2c-1.4-0.7,3-6.6,1.6-7.3
		c-2.1-1.2-15.4,11.8-18,10.5c-1.4-0.7,1.8-5.5,0.5-6.1c-2.1-1-12,9.4-13,8.8C566.3,420.8,569.7,416.1,573.5,412.2z"/>
	<path class="st20" d="M735.5,576.2c0.1-4.7,0.3-6.9,1-7c1.3-0.3,3.3,6.2,4,6c1.1-0.3-3.2-16.2-1-17c1.5-0.6,5.4,6.4,6,6
		c0.9-0.5-6.9-15.5-6-16c0.7-0.4,6.3,8.4,7,8c1.1-0.6-8.9-18.8-7-20.1c1.1-0.7,5.2,4.6,6,4c1.3-0.9-10.1-16.1-8-18
		c2.1-2,16.8,9.9,16,11c-0.4,0.6-4.4-2.3-6-1c-3.2,2.6,7.1,18.6,5,20.1c-1.4,1-7.3-5.6-8-5c-1.2,1,12,18.2,11,19
		c-0.7,0.6-8.2-7.7-9-7c-0.9,0.7,6.1,10.1,5,11c-0.9,0.8-6.6-6.3-9-5c-3.3,1.7,1.8,17.4,0,18c-1.1,0.4-3.3-5.4-5-5
		c-2.3,0.5-1.7,11-2,11C735.3,589.2,735.3,583.6,735.5,576.2z"/>
	<path class="st10" d="M547,441.8c0.3,0.5-3.6,1.9-7,6c-4.5,5.4-4.5,11.1-5,11c-0.6-0.1-1.6-8,3-13
		C541.4,442.1,546.7,441.3,547,441.8z"/>
	<path class="st21" d="M495.9,571.1c-0.6,0.1-0.2,6.2,1,12c1.5,7.1,2.4,11.4,6,14c2.2,1.6,5.2,1.8,11,2c7.9,0.3,15.1-0.5,15-1
		c0-0.4-4.4-0.5-16-2c-5.4-0.7-6.6-0.9-8-2c-2.4-1.9-2.6-4.1-5-12C498.2,576.5,496.5,571,495.9,571.1z"/>
	<path class="st21" d="M652.3,572.1c0.1,0.3-9.9,3.6-23.1,12c-13,8.3-12.8,11.1-21.1,14c-5.9,2.1-12,2.4-24.1,3
		c-5,0.2-10.7,0.5-18,0c-12.9-0.9-23.1-3.6-23.1-4c0.1-0.4,8.7,1.4,23.1,2c8.7,0.4,15.1,0.1,18,0c11.4-0.5,17-0.8,23.1-3
		c7.7-2.8,7.9-5.5,18-12C639.2,575.2,652.1,571.8,652.3,572.1z"/>
	<path class="st10" d="M603.2,380.7c-0.1,0.2-8.9-4.6-17-14c-5.1-5.9-7.4-10.7-8-12c-2.8-6-3.5-11-4-14c-3-19.4-4.5-29.2-6-35.1
		c-2.5-10.1-6-19.3-9-27.1c-2.7-7-5.2-12.9-5-13c0.2-0.1,3.4,6.2,6,12c3.1,6.9,7.1,15.9,10,27.1c1.5,5.9,0.8,5.2,6,35.1
		c0.5,3,1.4,8,4,14c0.9,2.1,3.1,6.8,7,12C594.8,375.8,603.3,380.5,603.2,380.7z"/>
	<path class="st9" d="M591.1,378.7c-0.6,2.7-8.4,0.6-15,6c-5.5,4.5-2.8,8-8,12c-6.3,4.8-13,1.7-19,8c-1.8,1.8-2.3,3.2-3,3
		c-2.2-0.6,1.3-12.5,0-28.1c-1.2-13.9-4.7-14.4-5-27.1c-0.1-5.4,0.5-5.1,3-24.1c1-7.9,0.9-8,3-25.1c2.8-22.6,3.5-26.9,5-27.1
		c2.2-0.2,4.5,8.4,6,14c2.7,9.9,3.4,16.8,5,32.1c2.2,20.2,2.8,23.7,5,29.1c2,4.8,4.5,10.5,10,16
		C584.8,374.3,591.7,376.1,591.1,378.7z"/>
	<path class="st20" d="M666.3,586.2c-0.9,0-1.9-13.7,0-14c1.6-0.3,3.3,7.2,6,7c1.9-0.1,2.4-4,4-4c2.6,0,4.1,10.2,6,10
		c1.5-0.1,1.4-6.8,3-7c2.2-0.3,5.9,12.7,5,13c-0.7,0.3-3.7-6.5-5-6c-1.1,0.4,0,4.7-1,5c-1.7,0.6-6.2-10.5-8-10
		c-1.4,0.4,1.2,10.6,0,11c-1.4,0.4-5.5-11.6-8-11C666.7,580.5,666.9,586.2,666.3,586.2z"/>
	<path class="st10" d="M618.7,441.3c0.5-0.5,19,10.7,20.1,28.1c0.4,7.1-2.2,12.8-4,16c0.9-5.6,1.3-13-1-21.1
		C629.4,449.4,618.3,441.7,618.7,441.3z"/>
	<path class="st10" d="M588,464.7c-0.2-2.8-0.2-6.6,1.3-10.6c2.8-7.6,8.9-11.1,8.4-11.6c-0.5-0.6-8.8,2.6-11.2,10
		C584.7,458.1,587.2,463.2,588,464.7z"/>
	<path class="st20" d="M561.7,622.8c-2.2,5.7-3.1,13.3-1.1,14c2.5,0.9,8.6-9.5,9.6-9c1.1,0.6-7.2,14.9-5.3,16c1.6,1,8.7-8.4,11.7-7
		c3.1,1.5-0.7,13.5,1.1,14c1.4,0.4,4.4-7.4,6.4-7c2.8,0.5,1.1,16.7,3.2,17c1.7,0.3,3.8-10.2,6.4-10c3.3,0.2,4.4,17.1,6.4,17
		c1.5-0.1,1.9-10,3.2-10c1.5,0,2.2,14,4.2,14c1.6,0.1,2.7-8.1,4.2-8c1.9,0.1,2.2,12.9,4.2,13c1.5,0.1,2.6-7.1,4.2-7
		c1.9,0.1,2.5,9,4.2,9c1.3,0,1.8-5,3.2-5c1.8,0,2.8,8.1,4.2,8c1.4-0.1,1.4-7.8,3.2-8c0.6-0.1,1.3,0.8,2.8,3.8c3,5.9,4,9.3,4.6,9.2
		c0.9-0.2-0.3-8.2,0.9-8.5c1.5-0.4,4.7,12.3,7,12c2.4-0.3,2.3-15,2-15c-0.2,0-0.2,7.7-2,8c-2.6,0.4-6.7-16-9-15.5
		c-1.3,0.3-1.1,5.9-2.1,6c-1.3,0.1-2.6-9.1-4.2-9c-1.5,0-2,8-3.2,8c-1.3,0-1.9-10-3.2-10c-1.1,0-1.6,7.9-3.2,8
		c-1.9,0.1-3.4-10.1-5.3-10c-1.5,0.1-1.7,6.9-3.2,7c-1.8,0.1-3.2-10.1-5.3-10c-1.5,0-2,5-3.2,5c-1.8-0.1-2.1-11.9-4.2-12
		c-1.5-0.1-2.4,6-4.2,6c-2.9,0-4.6-15.1-7.4-15c-1.9,0-3,7.1-4.2,7c-1.6-0.2-1-10.7-3.2-11c-1.5-0.2-3.1,4.3-4.2,4
		c-1.6-0.4,0.9-9.6-2.1-11c-2.5-1.2-7.1,4-8.5,3c-1.9-1.3,4.9-11.9,3.2-13c-1.4-0.9-6.7,5.1-8.5,4c-1.8-1.1,1.8-8.7,1.1-9
		C565.5,615.6,563.3,618.7,561.7,622.8z"/>
</g>
<g id="dog_2_">
	<g>
		<g>
			<path class="st1" d="M616.5,467c1.9,0,1.9-3,0-3C614.6,464,614.6,467,616.5,467L616.5,467z"/>
		</g>
	</g>
	<g>
		<path d="M763.1,395.2l-6.1-8l0,0l0,0c1.3-6.5,1.8-13.2,1.4-19.8c-0.2-3.3-0.6-6.6-1.2-9.8c-0.6-3.2-1.7-6.4-2.7-9.5
			c-2.2-6.3-3.9-12.7-5.2-19.2c-0.7-3.3-1.2-6.6-1.5-9.9c-0.3-3.3-0.7-6.6-1.4-9.8c-0.7-3.2-1.5-6.4-2.5-9.6c-0.9-3.2-2-6.3-3.3-9.3
			c-0.7-1.5-1.4-3-2.1-4.5c-0.7-1.5-1.3-3.1-1.7-4.7c-1-3.2-1.5-6.5-2.2-9.7c-0.7-3.2-1.8-6.4-4.2-8.5c-2.4-2.1-5.7-2.8-9-2.7
			c-3.3,0.1-6.5,0.8-9.4,2.2c-2.9,1.4-5.6,3.4-7.8,5.8l0,0c-5.2,7.2-10.3,14.5-15,21.9c-4.8,7.5-9.5,15-13.8,22.7
			c-8.6,15.5-15.3,32.1-19.6,49.3c2-8.6,4.7-17.2,7.8-25.4c3.1-8.3,7-16.3,11.3-24.1c4.3-7.8,9-15.3,13.7-22.8
			c4.7-7.5,9.7-14.9,15-22.1l0,0l0,0c2.3-2.5,5-4.6,8-6.1c1.5-0.7,3.1-1.3,4.8-1.7c1.7-0.4,3.3-0.6,5-0.6c1.7-0.1,3.4,0.1,5.1,0.5
			c1.7,0.4,3.2,1.2,4.6,2.4c1.3,1.1,2.3,2.6,3,4.2c0.7,1.6,1.1,3.2,1.5,4.8c0.7,3.3,1.2,6.5,2.1,9.7c0.4,1.6,1,3.1,1.7,4.6
			c0.7,1.5,1.4,3,2.1,4.5c1.3,3.1,2.4,6.2,3.3,9.4c0.9,3.2,1.8,6.4,2.4,9.7c0.7,3.3,1.1,6.6,1.4,9.9c0.3,3.3,0.8,6.6,1.4,9.8
			c1.3,6.5,3,12.9,5.1,19.2c1.1,3.1,2.1,6.3,2.7,9.6c0.6,3.3,0.9,6.6,1.1,9.9c0.3,6.6-0.3,13.3-1.7,19.8l0-0.1L763.1,395.2z"/>
	</g>
	<g>
		<path d="M753.1,409.2c-0.6,1.2-1,2.4-1.3,3.7c-0.3,1.3-0.5,2.6-0.4,3.9c0.1,2.6,1,5.1,2.5,7.1c1.5,2,3.7,3.5,6.1,4.6
			c2.4,1,5,1.4,7.7,1.3c-1.3,0.2-2.7,0.3-4,0.2c-1.3-0.1-2.7-0.4-4-0.8c-2.6-0.9-4.9-2.5-6.6-4.7c-0.8-1.1-1.5-2.3-1.9-3.6
			c-0.4-1.3-0.6-2.7-0.6-4.1C750.6,414.1,751.5,411.4,753.1,409.2z"/>
	</g>
	<g>
		<path d="M764.6,430.8c0,3.3,0.1,6.5,0.6,9.7c0.5,3.2,1.4,6.3,2.4,9.4c-1.8-2.8-2.9-6-3.4-9.2C763.7,437.3,763.8,434,764.6,430.8z"
			/>
	</g>
	<g>
		<path d="M753.6,431.8c-0.8,3.3-1.9,6.6-3.3,9.8c-1.4,3.2-3,6.2-4.9,9.1c-1.9,2.9-4,5.6-6.3,8.2c-1.2,1.3-2.4,2.5-3.6,3.7
			c-1.3,1.2-2.6,2.3-3.9,3.3c1.2-1.2,2.4-2.4,3.6-3.7c1.2-1.2,2.3-2.5,3.4-3.8c2.2-2.6,4.2-5.4,6-8.2c1.9-2.9,3.5-5.8,5-8.9
			c0.8-1.5,1.5-3.1,2.1-4.7C752.4,435,753,433.4,753.6,431.8z"/>
	</g>
	<g>
		<path d="M714.5,412.7c2.1,1.6,4,3.3,5.9,5.2c1.8,1.8,3.6,3.7,5.2,5.9c-2.1-1.6-4-3.3-5.9-5.2C717.8,416.8,716,414.9,714.5,412.7z"
			/>
	</g>
	<g>
		<path d="M678.4,382.7c0.1,2.6,0.4,5.2,1,7.6c0.6,2.5,1.6,4.9,2.8,7.1c1.2,2.2,2.7,4.3,4.4,6.2c1.7,1.9,3.7,3.6,5.8,5.1
			c-1.2-0.6-2.3-1.3-3.3-2c-1.1-0.8-2-1.6-3-2.5c-1.9-1.8-3.5-4-4.8-6.3c-1.2-2.3-2.2-4.8-2.7-7.4c-0.2-1.3-0.4-2.6-0.5-3.9
			C678.2,385.3,678.2,384,678.4,382.7z"/>
	</g>
	<g>
		<path d="M646.3,382.7c-2.8-0.4-5.5-0.9-8.2-1.3c-2.7-0.4-5.5-0.8-8.2-1.1c-2.8-0.3-5.5-0.6-8.3-0.9c-1.4-0.1-2.8-0.2-4.2-0.3
			l-4.2-0.3c1.4-0.1,2.8-0.1,4.2-0.2c1.4,0,2.8,0,4.2,0.1c2.8,0.1,5.6,0.3,8.3,0.7c2.8,0.3,5.5,0.8,8.3,1.4
			C640.9,381.2,643.6,381.8,646.3,382.7z"/>
	</g>
	<g>
		<path d="M605.2,382.7c-2.3,0.4-4.7,0.5-7,0.5c-2.3,0-4.7-0.1-7-0.5c2.3-0.4,4.7-0.5,7-0.5C600.5,382.2,602.8,382.3,605.2,382.7z"
			/>
	</g>
	<g>
		<path d="M610.2,365.6c-3.7-9.3-7.5-18.5-11.5-27.6c-2-4.6-4-9.1-6.1-13.7c-2.1-4.5-4.3-9-6.6-13.5c-1.1-2.2-2.2-4.5-3.1-6.9
			c-0.9-2.3-1.7-4.7-2.4-7.1c-1.5-4.8-2.6-9.7-4.6-14.2c-2.1-4.5-5.3-8.4-9.1-11.6c-3.8-3.3-8.1-5.8-12.7-7.7
			c4.7,1.7,9.1,4.2,13,7.3c1.9,1.6,3.7,3.4,5.3,5.3c1.6,1.9,3,4.1,4.1,6.3c1.1,2.3,1.9,4.7,2.6,7.1c0.7,2.4,1.4,4.8,2.2,7.2
			c0.8,2.4,1.5,4.7,2.5,7c0.9,2.3,2,4.6,3.1,6.8c4.5,8.9,8.6,18,12.5,27.3c1.9,4.6,3.8,9.2,5.6,13.9
			C606.8,356.2,608.5,360.9,610.2,365.6z"/>
	</g>
	<g>
		<path d="M550,268.4c-3.9,8.2-7.1,16.7-9.1,25.5c-1,4.4-1.8,8.9-2.2,13.4c-0.5,4.5-0.4,9-0.5,13.6c-0.1,4.5-0.3,9.1-0.7,13.6
			c-0.4,4.5-0.9,9-1.3,13.5c-0.3,4.5-0.1,9,0.6,13.5c0.6,4.5,1.8,8.9,3.3,13.2c-3.4-8.4-5.1-17.6-4.6-26.7c0.2-4.6,0.8-9.1,1.1-13.6
			c0.4-4.5,0.6-9,0.6-13.6c0-4.5,0-9.1,0.6-13.6c0.5-4.5,1.3-9,2.4-13.4c1.1-4.4,2.5-8.7,4.2-13C546,276.5,547.9,272.4,550,268.4z"
			/>
	</g>
	<path class="st22" d="M538.9,466c-0.2,0.2-0.3,0.5-0.4,0.4c-0.3-0.1,0-3,1.7-5.2c0.6-0.8,2.2-2.8,4.3-2.6c2,0.2,3.2,2.2,3.4,2.6
		c0.6,1.1,0.8,2.1,0.9,3.4c0.3,4.4,0.5,7.1-0.9,10.3c-0.7,1.7-1.3,3-2.6,3.4c-2,0.6-4.1-1.5-4.3-1.7"/>
	<path class="st22" d="M602.2,475.9c-0.8-1-2.8-3.2-5.5-2.9c-2.1,0.2-3.7,1.9-4.5,2.9c0.3-2.4,1-6.5,2.6-10.1
		c0.5-1.2,1.1-2.2,1.6-2.9"/>
	<path class="st22" d="M610.7,474.4c1.2-1.5,2.8-3.2,4.9-3.8c1.4-0.4,2.6-0.3,3.6,0c-0.1-0.7-0.3-2.2-0.7-3.9
		c-0.5-2.1-0.9-3.9-1.9-5.2c-0.2-0.3-0.7-0.9-1.5-1.3c-1-0.5-1.9-0.4-2.4-0.3"/>
	<ellipse class="st23" cx="543.5" cy="468.4" rx="5" ry="6"/>
	<ellipse class="st23" cx="605.7" cy="466.4" rx="9.5" ry="10.5"/>
	<g>
		<g>
			<path class="st1" d="M603.1,466.5c2.4,0,2.4-3.8,0-3.8C600.7,462.7,600.7,466.5,603.1,466.5L603.1,466.5z"/>
		</g>
	</g>
	<g>
		<path d="M534,375.6c-1.2-4.7-1.9-9.5-2.3-14.3c-0.4-4.8-0.4-9.7-0.1-14.6c0.4-4.8,1.1-9.7,2.1-14.4c0.5-2.4,1.2-4.7,1.9-7
			c0.7-2.3,1.5-4.6,2.4-6.8c-0.7,2.3-1.4,4.6-2,7c-0.6,2.3-1.1,4.7-1.6,7.1c-0.9,4.7-1.6,9.5-1.9,14.3c-0.4,4.8-0.4,9.6-0.2,14.4
			c0.1,2.4,0.3,4.8,0.6,7.2C533.3,370.9,533.6,373.3,534,375.6z"/>
	</g>
	<g>
		<path d="M536,427.8c-1-1.5-1.9-3.1-2.5-4.8c-0.6-1.7-1.1-3.5-1.3-5.4c-0.4-3.7,0.3-7.4,0.9-10.9c0.7-3.6,1.2-7.1,1.6-10.7
			c0.2-1.8,0.4-3.6,0.5-5.4c0.1-1.8,0.2-3.6,0.3-5.4c0.3,3.6,0.2,7.3,0,10.9c-0.2,3.6-0.8,7.2-1.4,10.8c-0.6,3.6-1.3,7.1-1.1,10.7
			C533.2,421.1,534.3,424.6,536,427.8z"/>
	</g>
	<g>
		<path d="M568.1,400.7c-2,1.9-3.9,3.8-5.8,5.8c-1.9,2-3.7,4-5.5,6.1c-1.8,2.1-3.4,4.2-5.1,6.4c-0.8,1.1-1.6,2.2-2.4,3.3
			c-0.8,1.1-1.5,2.3-2.3,3.4c0.6-1.2,1.2-2.4,1.9-3.7c0.7-1.2,1.4-2.4,2.2-3.5c1.5-2.3,3.2-4.5,4.9-6.6c1.8-2.1,3.7-4.1,5.7-6
			C563.7,404.1,565.8,402.3,568.1,400.7z"/>
	</g>
	<g>
		<path d="M542,432.8c-1.5,1.8-3,3.6-4.4,5.5c-1.4,1.9-2.7,3.8-3.8,5.8c-1.2,2-2.2,4.1-3.2,6.2c-0.5,1.1-0.9,2.1-1.4,3.2
			c-0.5,1.1-0.8,2.2-1.2,3.3c0.2-1.2,0.5-2.3,0.8-3.5c0.3-1.1,0.7-2.3,1.1-3.4c0.8-2.2,1.9-4.4,3.1-6.4c1.2-2,2.6-4,4.1-5.8
			c0.8-0.9,1.6-1.8,2.4-2.6C540.2,434.4,541.1,433.5,542,432.8z"/>
	</g>
	<g>
		<path d="M529,466.9c0.8,3.9,1.7,7.8,2.7,11.6c1,3.8,2.2,7.6,3.3,11.4c-1.9-3.5-3.3-7.3-4.3-11.2C529.7,474.9,529,470.9,529,466.9z
			"/>
	</g>
	<g>
		<path d="M539,492.9c-1.7,4.9-4.2,9.6-7.8,13.5c-3.5,3.9-7.5,7.3-11.6,10.6c-4.1,3.2-8.5,6.1-12.6,9.3c-2,1.6-4,3.3-5.3,5.5
			c-1.4,2.2-2.3,4.6-2.8,7.2c0.3-2.6,1.1-5.2,2.4-7.5c1.3-2.3,3.3-4.2,5.3-5.9c2-1.7,4.2-3.2,6.3-4.7c2.1-1.5,4.2-3.1,6.2-4.7
			c4.1-3.2,8.1-6.6,11.6-10.3c1.8-1.9,3.4-3.9,4.7-6.1C536.8,497.7,538,495.3,539,492.9z"/>
	</g>
	<path class="st24" d="M494.9,556.1c0.6,0.5,2.7,2.2,3,5c0.2,1.3,0,3.7-1,4c-1.3,0.5-3.8-2.5-5-5c-0.6-1.3-3.4-7.4,0-13
		c1.9-3.1,4.7-4.5,6-5c7.3-0.5,13.4-0.3,18,0c6.8,0.5,10.4,1.4,13,4c1.4,1.4,2.7,3.6,3,4c0.5,0.8,1.9,3.3,3,7c0.9,3.1,1.3,4.7,1,6
		c-1.6,6.2-17.4,9-20.1,5c-0.9-1.4-0.5-4.2,1-5c1.6-0.8,3.9,0.9,4,1"/>
	<path class="st24" d="M503.9,561.1c0.2,1,0.5,2.4,1,4c0.8,2.5,2.2,6.8,6,10c1.4,1.2,3.2,2.8,6,3c2.3,0.2,4.1-0.5,5-1"/>
	<path class="st24" d="M499.9,572.1c0.1,0.2,0.9,2.4,3,3c0.8,0.2,1.6,0.1,2,0"/>
	<g>
		<path d="M493.9,565.1c-0.1,2.6-0.1,5.2,0.1,7.8c0.1,2.6,0.4,5.2,0.9,7.7c0.5,2.6,1.1,5.1,1.8,7.6c0.7,2.5,1.4,5,2.6,7.3
			c0.6,1.1,1.3,2.2,2.2,3c0.4,0.4,0.9,0.8,1.5,1.1c0.5,0.3,1.1,0.5,1.7,0.7c2.5,0.5,5.1,0.5,7.7,0.6c2.6,0,5.2-0.1,7.8-0.2
			c2.6-0.1,5.2-0.3,7.8-0.5c-5.2,0.8-10.4,1.3-15.6,1.5c-2.6,0.1-5.3,0.1-7.9-0.4c-0.7-0.1-1.4-0.4-1.9-0.8
			c-0.6-0.4-1.2-0.8-1.6-1.2c-1-0.9-1.8-2.1-2.4-3.3c-1.2-2.4-1.9-5-2.6-7.5c-0.7-2.5-1.3-5.1-1.7-7.7
			C493.3,575.6,493.3,570.3,493.9,565.1z"/>
	</g>
	<g>
		<path d="M514.4,582.7c4.3,4.6,9.3,8.4,14.8,11.4c5.5,3,11.5,5,17.6,6.3c3.1,0.6,6.1,1.1,9.2,1.6c3.1,0.4,6.2,0.8,9.3,1.1
			c6.2,0.5,12.5,0.6,18.7,0.3c6.2-0.3,12.5-0.4,18.6-1.7c3-0.6,6-1.6,8.9-2.8c2.9-1.2,5.5-2.8,8.1-4.6c5.1-3.6,10.3-7.2,15.7-10.4
			c5.4-3.3,10.9-6.3,16.4-9.1c-5.5,3-10.9,6.2-16.2,9.6c-5.3,3.3-10.4,6.9-15.5,10.6c-1.3,0.9-2.6,1.8-3.9,2.6
			c-1.4,0.8-2.8,1.5-4.2,2.2c-2.9,1.2-5.9,2.2-9,2.9c-6.2,1.3-12.5,1.4-18.8,1.8c-6.3,0.3-12.6,0.2-18.9-0.4
			c-3.1-0.3-6.3-0.7-9.4-1.2c-3.1-0.5-6.2-1-9.3-1.7c-6.1-1.4-12.1-3.5-17.6-6.6C523.6,591.4,518.6,587.4,514.4,582.7z"/>
	</g>
	<g>
		<path d="M524,605.2c3.4,0,6.7,0,10,0.1c3.3,0.1,6.7,0.2,10,0.4c3.3,0.2,6.7,0.4,10,0.6l5,0.4c1.7,0.2,3.3,0.3,5,0.5
			c-1.7,0-3.3,0-5,0l-5-0.1c-3.3-0.1-6.7-0.2-10-0.4c-3.3-0.2-6.7-0.4-10-0.6C530.6,605.9,527.3,605.6,524,605.2z"/>
	</g>
	<path class="st24" d="M538.5,466.4c0.1-0.4,0.6-2.3,2.6-3.4c1.7-0.9,3.8-0.9,5.2,0c3,1.9,2.9,8,0,10.3c-0.2,0.2-2.1,1.6-4.3,0.9
		c-1.7-0.6-2.4-2.3-2.6-2.6"/>
	<g>
		<g>
			<path class="st1" d="M542.1,469.1c1.9,0,1.9-3,0-3C540.1,466.1,540.1,469.1,542.1,469.1L542.1,469.1z"/>
		</g>
	</g>
	<g>
		<g>
			<path d="M543.5,470.8c2.6,0,2.6-4,0-4C540.9,466.8,540.9,470.8,543.5,470.8L543.5,470.8z"/>
		</g>
	</g>
	<path class="st24" d="M605.7,476.4c-4.2-0.3-7.7-3.1-9-7c-1.3-4-0.1-8.4,3-11c0.4-0.3,4.3-3.5,9-2c4.1,1.3,5.7,5.2,6,6
		c1.5,4,0.3,8.6-3,12"/>
	<g>
		<path d="M553,480.9c-0.1,1.1-0.7,2.1-1.4,3c-0.7,0.9-1.6,1.6-2.6,2c0.6-1,1.2-1.8,1.9-2.6C551.6,482.5,552.2,481.7,553,480.9z"/>
	</g>
	<g>
		<path d="M559.1,462.9c0-2.8-0.2-5.5-0.5-8.2c-0.1-1.4-0.2-2.7-0.5-4c-0.3-1.3-0.8-2.6-1.4-3.8c-0.6-1.2-1.2-2.4-2.2-3.3
			c-0.9-0.9-2.1-1.4-3.4-1.4c-1.3,0.1-2.5,0.7-3.5,1.5c-1.1,0.8-1.9,1.9-2.6,3.1c0.5-1.3,1.3-2.5,2.3-3.5c1-1,2.3-1.8,3.8-1.9
			c0.7-0.1,1.5,0,2.2,0.3c0.7,0.3,1.3,0.7,1.9,1.2c1.1,1,1.8,2.3,2.4,3.5c0.6,1.3,1.1,2.6,1.4,4c0.3,1.4,0.3,2.8,0.4,4.2
			c0,1.4,0.1,2.8,0,4.1C559.3,460.1,559.3,461.5,559.1,462.9z"/>
	</g>
	<g>
		<path d="M583.1,460.9c-0.2-1.8-0.3-3.6-0.1-5.4c0.2-1.8,0.7-3.6,1.4-5.3c0.7-1.7,1.7-3.3,2.8-4.7c1.2-1.4,2.5-2.6,4.1-3.7
			c3-2.1,6.6-3.3,10.2-3.8c3.6-0.5,7.3-0.2,10.7,0.7c-1.8-0.2-3.5-0.4-5.3-0.4c-0.9,0-1.8,0.1-2.7,0.1c-0.9,0.1-1.8,0.2-2.6,0.4
			c-1.7,0.3-3.4,0.8-5.1,1.4c-1.6,0.6-3.2,1.4-4.6,2.4c-1.5,1-2.8,2.1-3.9,3.5c-1.2,1.3-2.1,2.8-2.9,4.4
			C583.6,453.7,583,457.3,583.1,460.9z"/>
	</g>
	<g>
		<path d="M712.5,489.9c0.7,0.4,1.2,0.9,1.7,1.4c0.5,0.5,0.9,1.1,1.2,1.6c0.3,0.6,0.6,1.2,0.8,1.9c0.2,0.7,0.3,1.4,0.3,2.1
			c-0.7-0.4-1.2-0.9-1.7-1.4c-0.5-0.5-0.9-1.1-1.2-1.6c-0.3-0.6-0.6-1.2-0.8-1.9C712.6,491.4,712.4,490.7,712.5,489.9z"/>
	</g>
	<g>
		<path d="M714.5,504c0.7,0.9,1.3,1.7,1.8,2.6l1.7,2.5l1.7,2.4c0.6,0.8,1.2,1.6,1.8,2.6c-1.1-0.3-2-0.8-2.9-1.5
			c-0.9-0.7-1.6-1.5-2.2-2.4c-0.6-0.9-1.1-1.9-1.5-2.9C714.5,506.2,714.4,505.1,714.5,504z"/>
	</g>
	<g>
		<path d="M712.5,520c0.7,0.4,1.3,0.9,1.9,1.3l1.6,1.2l1.7,1.2c0.6,0.4,1.2,0.8,1.8,1.3c-1.6,0.6-3.3,0.1-4.7-0.9
			c-0.7-0.5-1.2-1.1-1.7-1.8C712.7,521.7,712.4,520.9,712.5,520z"/>
	</g>
	<g>
		<path d="M708.4,533c0.4,0.7,0.7,1.3,1,1.9c0.3,0.6,0.6,1.1,0.9,1.7c0.3,0.5,0.6,1.1,1,1.6c0.3,0.6,0.7,1.1,1.1,1.8
			c-0.8,0-1.6-0.3-2.2-0.7c-0.7-0.4-1.2-1-1.6-1.7c-0.4-0.7-0.6-1.5-0.7-2.3C707.9,534.6,708,533.8,708.4,533z"/>
	</g>
	<g>
		<path d="M744.5,527c0.2,1,0.4,1.9,0.6,2.8c0.2,0.9,0.5,1.7,0.8,2.5c0.3,0.8,0.7,1.6,1.1,2.3c0.4,0.8,0.9,1.6,1.4,2.5
			c-1-0.2-1.9-0.8-2.7-1.5c-0.8-0.7-1.4-1.6-1.8-2.6C743.3,531.1,743.3,528.7,744.5,527z"/>
	</g>
	<g>
		<path d="M744.5,542.1c0.6,0.5,1,0.9,1.3,1.4c0.4,0.5,0.7,0.9,1,1.4c0.3,0.5,0.6,0.9,0.9,1.5c0.3,0.5,0.6,1.1,0.8,1.8
			c-0.7,0-1.4-0.3-1.9-0.7c-0.6-0.4-1-0.9-1.4-1.4c-0.4-0.6-0.6-1.2-0.8-1.8C744.3,543.5,744.3,542.8,744.5,542.1z"/>
	</g>
	<g>
		<path d="M748.5,557.1c0.4,1.7,0.8,3.3,1.3,5c0.3,0.8,0.5,1.6,0.8,2.4c0.3,0.8,0.6,1.6,0.8,2.3l0.7,1.9l-1.9-0.6
			c-1.5-0.5-3.1-0.4-4.4,0.3c-0.7,0.4-1.3,0.9-1.9,1.5c-0.6,0.6-1,1.4-1.4,2.2c0-0.9,0.2-1.9,0.6-2.8c0.4-0.9,1-1.7,1.8-2.3
			c0.8-0.7,1.8-1,2.9-1.2c1-0.1,2.1,0,3.1,0.3l-1.2,1.3c-0.3-0.8-0.5-1.7-0.8-2.5c-0.3-0.8-0.4-1.7-0.5-2.6
			C748.1,560.6,748.2,558.8,748.5,557.1z"/>
	</g>
	<g>
		<path d="M739.5,575.2c-0.3,0.4-0.5,0.6-0.8,0.8c-0.3,0.1-0.5,0.2-0.8,0.2c-0.3,0-0.5-0.1-0.8-0.2c-0.3-0.2-0.5-0.4-0.8-0.8
			c0.3-0.4,0.5-0.6,0.8-0.8c0.3-0.1,0.5-0.2,0.8-0.2c0.3,0,0.5,0.1,0.8,0.2C739,574.5,739.3,574.7,739.5,575.2z"/>
	</g>
	<g>
		<path d="M699.4,578.2c1.4,1.1,2.6,2.5,3.7,4c1.1,1.5,2,3,2.8,4.6c0.8,1.6,1.4,3.3,1.8,5.1c0.5,1.7,0.7,3.5,0.7,5.4
			c-0.8-1.6-1.5-3.2-2.2-4.8c-0.7-1.6-1.4-3.2-2.2-4.7c-0.7-1.6-1.5-3.1-2.3-4.7C701,581.4,700.2,579.8,699.4,578.2z"/>
	</g>
	<g>
		<path d="M667.3,579.2c0.9,0.1,1.7,0.4,2.5,0.7c0.8,0.3,1.5,0.8,2.2,1.3c0.7,0.5,1.3,1.1,1.9,1.7c0.6,0.7,1.1,1.4,1.4,2.2
			c-0.9-0.2-1.7-0.6-2.4-1c-0.7-0.4-1.4-0.9-2.1-1.4c-0.7-0.5-1.3-1-1.9-1.6C668.4,580.6,667.8,580,667.3,579.2z"/>
	</g>
	<g>
		<path d="M767.6,462.9c-1.1,4.6-2.9,9.1-5.4,13.1c-1.2,2.1-3,3.8-3.2,6c-0.1,1.1,0,2.2,0.5,3.2c0.4,1,1.1,2,1.8,2.9
			c1.4,1.8,3,3.7,4.3,5.7c1.3,2,2.5,4.1,3.4,6.3c0.9,2.2,1.5,4.5,2,6.9c0.4,2.3,0.6,4.7,0.6,7.1c-0.4-4.7-1.4-9.4-3.3-13.6
			c-1-2.1-2.1-4.2-3.4-6.1c-1.3-1.9-2.9-3.7-4.4-5.6c-0.7-1-1.4-2-1.9-3.1c-0.5-1.2-0.7-2.5-0.5-3.7c0.1-0.6,0.2-1.2,0.5-1.8
			c0.2-0.6,0.6-1.1,0.9-1.6c0.7-1,1.4-1.9,2.1-2.9c1.3-1.9,2.4-4,3.4-6.1C766,467.3,766.8,465.1,767.6,462.9z"/>
	</g>
	<g>
		<path d="M769.6,521c0.4,6.8,0.6,13.5,0.7,20.3c0.1,6.8,0,13.6-0.1,20.3c-0.2,6.8-0.5,13.5-0.9,20.3c-0.2,3.4-0.5,6.8-0.7,10.1
			c-0.3,3.4-0.6,6.7-1,10.1l0.5-10.1c0.2-3.4,0.3-6.8,0.5-10.1c0.3-6.8,0.5-13.5,0.7-20.3c0.2-6.8,0.3-13.5,0.3-20.3
			C769.6,534.6,769.6,527.8,769.6,521z"/>
	</g>
	<g>
		<path d="M546,619.3c2.4,5.2,5.2,10.3,8.4,15c1.6,2.4,3.3,4.7,5.1,6.9c1.8,2.2,3.7,4.3,5.8,6.3c4.2,3.9,8.8,7.3,13.6,10.5
			c4.8,3.2,9.7,6.1,14.7,8.9c10,5.6,20.3,10.6,30.8,15.4c10.5,4.8,21.1,9.1,31.8,13.2c-5.4-1.8-10.8-3.8-16.2-5.9
			c-5.4-2.1-10.7-4.3-15.9-6.6c-5.3-2.3-10.5-4.8-15.7-7.3c-2.6-1.3-5.1-2.6-7.7-3.9c-2.5-1.4-5.1-2.7-7.6-4.1c-5-2.8-10-5.8-14.7-9
			c-4.8-3.2-9.4-6.7-13.6-10.7c-2.1-2-4-4.1-5.8-6.4c-1.8-2.3-3.5-4.6-5-7C550.9,629.7,548.2,624.6,546,619.3z"/>
	</g>
	<g>
		<g>
			<path d="M605.1,469.1c3.2,0,3.2-5,0-5C601.9,464.1,601.9,469.1,605.1,469.1L605.1,469.1z"/>
		</g>
	</g>
</g>
<g id="Outer_2_">
	<g>
		<path class="st3" d="M730,136.5l4.2-5.3l4.2-5.3l0.6,1.4c-1,0-2,0.1-3.1-0.1c-1.1-0.1-2.1-0.4-3.1-0.6l-0.7-0.1l-0.2,0
			c-0.1,0.1,0-0.2,0.1-0.4c0.1-0.2,0.4-0.5,0.6-0.6c0.3-0.1,0.6-0.2,0.7-0.2l1.3-0.1l2.6-0.2c3.4-0.2,6.9-0.4,10.3-0.6
			c6.9-0.3,13.8-0.5,20.7-0.5c6.9,0,13.8,0.1,20.7,0.6c6.9,0.4,13.8,1.1,20.7,2.2c6.9,1.1,13.7,2.4,20.4,4.2c3.4,0.9,6.7,1.8,10,2.8
			c1.7,0.5,3.3,1,4.9,1.6c1.6,0.6,3.3,1.1,4.9,1.7c13,4.7,25.6,10.6,37.5,17.5c-12.7-5.2-25.6-10.1-38.6-14c-1.6-0.5-3.3-1-4.9-1.4
			c-1.6-0.5-3.3-0.9-4.9-1.3c-3.3-0.9-6.6-1.7-9.9-2.5c-6.6-1.5-13.3-2.8-20.1-3.8c-13.4-2-27.1-2.8-40.8-3.3
			c-6.8-0.2-13.7-0.4-20.6-0.5c-3.4-0.1-6.9-0.1-10.3-0.1l-2.6,0l-1.3,0c0,0,0.2,0,0.3-0.1c0.2-0.1,0.3-0.4,0.3-0.6
			c0-0.2-0.1-0.4,0-0.4l0.2,0l0.6-0.1c0.8-0.2,1.5-0.4,2.1-0.6c0.6-0.1,1.3-0.1,2-0.1l1.9,0.1l-1.3,1.3l-4.8,4.8L730,136.5z"/>
	</g>
	<g>
		<path class="st3" d="M966.6,337c1.1,6.2,1.9,12.6,2.3,18.9c0.4,6.3,0.4,12.7,0.1,19.1c-0.6,12.7-2.6,25.4-6,37.7
			c-1.7,6.2-3.9,12.2-6.7,18c-2.8,5.8-5.9,11.4-9.2,16.8c-6.7,10.9-13.9,21.4-20.9,31.9c-7.1,10.5-14,21.2-22.1,31.2
			c-8,10.1-17.3,19.1-27.2,27.2c-9.9,8.1-20.7,15.2-31.9,21.4c-2.8,1.5-5.6,3.1-8.3,4.6c-2.7,1.6-5.5,3.1-8.2,4.7
			c-5.5,3.2-10.8,6.5-16.2,9.8c-21.4,13.5-42.1,28.1-62.1,43.6c-10,7.7-19.9,15.7-29.5,23.9c-9.6,8.2-19,16.6-28,25.5
			c-9,8.8-17.7,18.1-26.6,27.2c-8.9,9.1-18,18.1-27.6,26.4c-9.7,8.3-19.8,16-30.3,23.2c-2.6,1.8-5.3,3.5-7.9,5.3
			c-2.6,1.8-5.3,3.5-8,5.1c-5.4,3.3-10.9,6.5-16.4,9.6c21.6-13.3,42.5-27.9,61.1-45c18.8-16.9,35.1-36.4,53.1-54.5l6.8-6.7l6.9-6.6
			l7.1-6.4c2.4-2.1,4.8-4.2,7.2-6.3c9.6-8.3,19.4-16.4,29.5-24.3c20.1-15.6,40.8-30.4,62.3-44.1c5.4-3.4,10.8-6.7,16.4-9.9
			c2.7-1.6,5.5-3.2,8.3-4.7c2.8-1.6,5.6-3.1,8.3-4.6c11.1-6,21.6-12.9,31.3-20.8c9.8-7.9,18.9-16.6,26.8-26.3
			c4-4.9,7.7-10,11.3-15.1c3.7-5.2,7.3-10.4,10.9-15.6c7.2-10.4,14.5-20.8,21.3-31.4c3.4-5.3,6.6-10.7,9.4-16.3
			c2.8-5.6,5.1-11.4,6.9-17.5C968.1,388,969.9,362.2,966.6,337z"/>
	</g>
</g>
<g id="UpperStethoscope_2_">
	<path class="st25" d="M418.8,543.9c-0.1,0.9-0.2,1.9-0.6,3.1c-0.5,1.7-1.2,3-1.8,3.9c3.3,1.7,9.2,4.1,16.9,4.1
		c14.5,0.1,24.3-8.5,26.9-11c8.5-8,10.9-17.6,13.6-29.3c2.9-12.3,3.5-23.1,2.6-48.3c-0.4-12.4-1.3-28.4-2.8-47.1
		c-2.3-0.2-4.6-0.4-6.9-0.6c0.5,11.3,1.5,33.9,1.7,46.3c0,1.3,0,2.5,0,2.5c0,4.5,0,12.7-0.5,22.8c-1.2,26.7-4,35.1-8.7,41.8
		c-4.8,7.1-10,10-11.3,10.7c-6.5,3.4-12.7,3.4-16.2,3.4C426.2,546.2,421.7,544.9,418.8,543.9z"/>
	<path class="st26" d="M349,397.2c-2-0.4-4-0.7-6-1.1c-2.5,4.6-6,11.3-9.8,19.5c-9.2,20-13.4,34.6-19.3,54.9
		c-1.5,5.3-4.1,14.5-4.9,26.7c-0.6,10,0.5,14.1,1.2,16.2c3.2,9.7,10.4,15,13.5,17.3c2.2,1.6,9.2,6.5,19.3,7.8
		c2.9,0.4,5.4,0.4,7.2,0.3c0.2-2.8,0.3-5.6,0.5-8.4c-1.8,0.1-4.3,0.1-7.2-0.3c-3.1-0.4-9.4-1.4-15.5-6c-2-1.5-7.6-5.8-10-13.5
		c-1.4-4.4-1.2-8.1-0.8-12.9c1.6-15.7,4.9-26.7,4.9-26.7c6.4-21.5,9.7-32.2,14.3-44.2C339.3,419.2,343.4,409,349,397.2z"/>
	<path class="st27" d="M413.3,551.4c0.4-0.2,1.6-0.9,2.7-3.7c1.3-2.9,2.3-5.2,1.3-7c-1.2-2.1-3.8-1-7.7-3.5
		c-3.3-2.1-2.7-3.7-5.3-5.1c-3.3-1.8-9.2-2-12.8,1.8c-2.7,2.8-3.7,7.4-2,11.1c2,4.2,6.6,5.3,7.3,5.5c2.6,0.6,2.6-0.5,6.2,0.1
		c2.6,0.4,3.9,1.2,7,1.3C412,551.9,412.7,551.7,413.3,551.4z"/>
	<path class="st27" d="M353,529c1.4-1.2,3.1-1.4,3.4-1.5c2.1-0.3,3,0.7,5,0.9c2.8,0.3,3.8-1.3,6.6-1.9c3.5-0.8,9.2,0.1,11.7,4.2
		c2.1,3.4,1.5,8.1-1,11.2c-3.2,3.9-8.4,3.6-9,3.6c-2.7-0.2-2.5-1.4-6.9-2.3c-2.8-0.6-4-0.3-7-1.3c-2.1-0.6-3.1-1-3.8-1.7
		C349.4,537.6,349.8,531.6,353,529z"/>
	<path class="st3" d="M470.9,371.9c-0.1-1.1-0.3-4.4-1.6-8.6c-0.7-2.4-1.5-4.3-2.1-5.6c-4.9-44.2-9.8-88.4-14.7-132.6
		c-0.6-8.1-2.3-16.9-5.8-25.9c-18.9-48.2-75.8-63-103.3-70.2c-75.3-19.6-138.7,7.6-156.4,16c-18.4,8.7-60.3,31.5-93.2,79.2
		c-43.5,62.9-43.1,128.4-41.1,155.4c4.2,55.1,26.4,94.7,37.1,113.3c14.1,24.5,29.4,42.8,41.1,55.1c11.1,9.6,24.8,7.5,29.1,1
		c3.1-4.7,1.7-12.5-3-19c-12-10.2-28.4-26.3-43.1-49.1c-12.3-19.1-31.5-55.3-35.1-104.3c-1.6-21.4-2.5-77.3,33.1-133.3
		c30.9-48.7,72.3-70.7,83.2-76.2c8.4-4.2,68.6-33.4,142.4-16c22.7,5.3,72.5,16.8,88.2,55.1c1.3,3.2,3.1,8.4,4.1,15.2
		c5.1,37.3-24.1,73.8-61.4,120.4c-0.6,0.7-2.2,2.7-4.1,5.5c-6.5,9.3-9.4,16.9-12.8,24.7c-2.5,5.8-6.3,13.9-11.6,23.8
		c4.4,0.8,8.7,1.6,13.1,2.4c2.7-3.8,6.1-8.8,10-14.8c1-1.5,3.3-5.1,5.8-9.3c7.6-12.4,9.9-17.9,12.2-21.6c7.4-11.8,26.2-23.4,43.9-19
		c14.1,3.5,25.7,16.6,28,29c1.1,5.9-0.3,10.2,2,23.2c0.6,3.3,1.3,6.6,2.8,13c1.9,8.2,3.6,14.9,4.7,19.6c4.4,0.5,8.8,0.9,13.2,1.4
		C473.2,395.1,471.3,377.3,470.9,371.9z"/>
</g>
<g id="PlusSign_2_">
	<path class="st28" d="M124,568.1c19,0,38.1,0,57.1,0c2.3-1.3,4.7-2.7,7-4c-1-25.1-2-50.1-3-75.2c28.7-4.3,50.3-5.6,64.2-6
		c7.9-0.2,19.5-0.3,25.1,7c2,2.6,2.7,5.4,3,14c0.9,20.7,1.8,43.9,1,58.1c0,0.7-0.1,2.6,1,4c1.8,2.3,5.6,2.1,7,2
		c31.2-1.7,36.3,3.5,55.1,0c1.6-0.3,5.6-1.1,9,1c3,1.8,4.3,4.9,5,7c6.9,20.1-2.9,49.9-4,53.1c-0.3,0.8-0.8,2.4-2,4
		c-3.2,4.4-8.8,6.2-16,7c-9.8,1.1-27.6,1.2-41.1,0c-0.8-0.1-2.9-0.3-4,1c-1.5,1.7-0.3,5,0,6c3.9,11.8,4.9,45.6-1,61.2
		c-0.8,2.2-2,4.6-4,7c-4.2,5-9.4,7-12,8c-8.5,3.2-28.2,5.4-54.1,4c-2.1-0.2-4.9-0.8-7-3c-2.5-2.6-2.5-6.1-3-11
		c-0.8-7.5-1.9-8.3-3-15c-1.5-9.3-3-29.9-2-57.1c-6.7-0.5-13.7-0.9-21.1-1c-18.3-0.3-35.2,1-50.1,3c-2.4-2.7-4.8-5.7-7-9
		c-14.2-21.7-12.7-46-11-58.1c0.2-0.8,1-3.8,4-6C120,567.9,123.1,568.1,124,568.1z"/>
	<path class="st29" d="M115.9,574.2c19,0,38.1,0,57.1,0c2.3-1.3,4.7-2.7,7-4c-1-25.1-2-50.1-3-75.2c28.7-4.3,50.3-5.6,64.2-6
		c7.9-0.2,19.5-0.3,25.1,7c2,2.6,2.7,5.4,3,14c0.9,20.7,1.8,43.9,1,58.1c0,0.7-0.1,2.6,1,4c1.8,2.3,5.6,2.1,7,2
		c31.2-1.7,36.3,3.5,55.1,0c1.6-0.3,5.6-1.1,9,1c3,1.8,4.3,4.9,5,7c6.9,20.1-2.9,49.9-4,53.1c-0.3,0.8-0.8,2.4-2,4
		c-3.2,4.4-8.8,6.2-16,7c-9.8,1.1-27.6,1.2-41.1,0c-0.8-0.1-2.9-0.3-4,1c-1.5,1.7-0.3,5,0,6c3.9,11.8,4.9,45.6-1,61.2
		c-0.8,2.2-2,4.6-4,7c-4.2,5-9.4,7-12,8c-8.5,3.2-28.2,5.4-54.1,4c-2.1-0.2-4.9-0.8-7-3c-2.5-2.6-2.5-6.1-3-11
		c-0.8-7.5-1.9-8.3-3-15c-1.5-9.3-3-29.9-2-57.1c-6.7-0.5-13.7-0.9-21.1-1c-18.3-0.3-35.2,1-50.1,3c-2.4-2.7-4.8-5.7-7-9
		c-14.2-21.7-12.7-46-11-58.1c0.2-0.8,1-3.8,4-6C111.9,573.9,115.1,574.1,115.9,574.2z"/>
</g>
<g id="LowerStethoscope_2_">
	<g>
		<path class="st3" d="M508.8,796.1c-6.3-9.1-16.1-22.3-29.7-37.4c-24.9-27-40.2-39.2-57.2-51.6c-17.1-12.1-43.1-28-80.2-40.7
			c-10-3.7-21.3,1-24.2,8.2c-2.2,5.4,0.2,11.9,5.8,15.9c9.1,2.4,18.5,5.3,28,8.9c11.2,4.3,29.6,11.8,54.7,28.6
			c10.3,7.6,20.8,13,54.3,46.9c14,14.8,24.2,27.8,31.2,37.3C497,806.7,502.8,801.4,508.8,796.1z"/>
	</g>
	<path class="st30" d="M591.4,831.4c0.3,36.5-27.8,66.8-61.1,72.6c-41.7,7.3-86-24.8-87.7-69.2c-1.7-42.7,36.7-78.5,78.9-76.1
		C558.7,760.9,591.1,792.4,591.4,831.4z"/>
	<g>
		<path class="st3" d="M581.7,831.4c0.2,31.8-24.2,58.1-53.1,63.2c-36.2,6.3-74.8-21.6-76.3-60.2c-1.5-37.1,31.9-68.3,68.6-66.2
			C553.3,770.1,581.4,797.6,581.7,831.4z"/>
		<circle class="st1" cx="517" cy="831.8" r="6"/>
	</g>
</g>
<g id="StethoScopeShading_2_">
	<path class="st31" d="M195.1,146c18.5-8.1,38.1-14,58.1-17c22.2-3.3,44.9-3,67,0.2c25.4,3.7,51,10.8,73.3,23.6
		c19.6,11.3,39.4,27.5,47.8,49.2c4.2,10.9,5.7,22.8,7.3,34.2c1.9,13.7,3.1,27.5,3.7,41.4c0.2,4.3,0.3,8.5,0.4,12.8"/>
	<path class="st31" d="M152,533c-18.5-16.1-31.1-32.2-39.1-44.1c-4.9-7.3-24.6-37.4-34.1-81.2c-4.1-18.9-4.8-33.5-5-38.1
		c-0.2-6.2-0.7-25.4,4-50.1c2.9-15,9.2-46.2,31.1-80.2c19.1-29.6,41.7-48.3,57.1-59.2"/>
	<path class="st31" d="M461.8,335.5c0.7,7,1.3,14,2,21.1c0.8,1.6,2.1,4.4,3,8c1.2,4.9,1,8.8,1,10c-0.1,4.9,0.4,14.8,3,37.1"/>
	<path class="st31" d="M352.5,392.7c3.9-5.1,9.5-12.9,15-23.1c5.5-10.1,4.4-10.5,8-16c3.2-5,15.7-22.7,35.1-24.1
		c4.7-0.3,8.6,0.4,11,1"/>
	<path class="st31" d="M336.5,669.4c14,4.6,30.9,11.2,49.1,21.1c22.2,12,38.8,24.5,49.1,33.1c16.1,13.3,28.9,26.8,39.1,39.1"/>
</g>
</svg>
